<svg width="24" height="24" viewBox="0 0 24 24" fill="none" xmlns="http://www.w3.org/2000/svg">
    <path fill-rule="evenodd" clip-rule="evenodd" d="M24 15.27V6.172A4.177 4.177 0 0 0 19.827 2H4.173A4.177 4.177 0 0 0 0 6.173V18.02a4.177 4.177 0 0 0 4.173 4.173h15.654A4.177 4.177 0 0 0 24 18.02v-2.75zm-1-9.097v2.75h-5.923a3.177 3.177 0 0 0-3.173 3.173 3.177 3.177 0 0 0 3.173 3.173H23v2.75a3.177 3.177 0 0 1-3.173 3.173H4.173A3.177 3.177 0 0 1 1 18.02V6.173A3.177 3.177 0 0 1 4.173 3h15.654A3.177 3.177 0 0 1 23 6.173zm-7.827 5.923a1.904 1.904 0 0 1 1.891-1.904H23V14h-5.923a1.906 1.906 0 0 1-1.904-1.904zm1.904.635h.846a.635.635 0 1 0 0-1.27h-.846a.635.635 0 0 0 0 1.27z" fill="#9e9e9e"/>
</svg>
