<svg width="64" height="58" viewBox="0 0 64 58" fill="none" xmlns="http://www.w3.org/2000/svg">
    <g filter="url(#0z07zlpywa)">
        <path fill-rule="evenodd" clip-rule="evenodd" d="m57.354 10.133.015 29.319a3.534 3.534 0 0 1-3.537 3.537H8.602v2.623H56.02a3.982 3.982 0 0 0 3.98-3.98l-.015-27.76a3.994 3.994 0 0 0-2.63-3.74z" fill="#B7B4C7"/>
        <path fill-rule="evenodd" clip-rule="evenodd" d="m57.557 39.616-.015-29.484c-.42-.15-.877-.24-1.364-.24H8.587l.015 33.284h45.41a3.555 3.555 0 0 0 3.545-3.56z" fill="#fff"/>
        <path fill-rule="evenodd" clip-rule="evenodd" d="M10.565 14.592c0-.33.27-.6.6-.6H14.8c.33 0 .6.27.6.6 0 .33-.27.6-.6.6h-3.635c-.33 0-.6-.27-.6-.6zM10.565 16.766c0-.33.27-.6.6-.6H14.8c.33 0 .6.27.6.6 0 .33-.27.6-.6.6h-3.635c-.33 0-.6-.27-.6-.6zM10.565 18.932c0-.33.27-.6.6-.6H14.8c.33 0 .6.27.6.6 0 .33-.27.6-.6.6h-3.635c-.33 0-.6-.27-.6-.6zM10.565 21.105c0-.33.27-.6.6-.6H14.8c.33 0 .6.27.6.6 0 .33-.27.6-.6.6h-3.635c-.33 0-.6-.27-.6-.6zM10.565 23.278c0-.33.27-.6.6-.6H14.8c.33 0 .6.27.6.6 0 .33-.27.6-.6.6h-3.635a.606.606 0 0 1-.6-.6zM10.565 25.444c0-.33.27-.6.6-.6H14.8c.33 0 .6.27.6.6 0 .33-.27.6-.6.6h-3.635c-.33 0-.6-.27-.6-.6zM10.565 27.618c0-.33.27-.6.6-.6H14.8c.33 0 .6.27.6.6 0 .33-.27.6-.6.6h-3.635a.606.606 0 0 1-.6-.6zM10.565 29.784c0-.33.27-.6.6-.6H14.8c.33 0 .6.27.6.6 0 .33-.27.6-.6.6h-3.635c-.33 0-.6-.27-.6-.6zM10.565 31.957c0-.33.27-.6.6-.6H14.8c.33 0 .6.27.6.6 0 .33-.27.6-.6.6h-3.635c-.33 0-.6-.27-.6-.6zM10.565 34.123c0-.33.27-.6.6-.6H14.8c.33 0 .6.27.6.6 0 .33-.27.6-.6.6h-3.635c-.33 0-.6-.263-.6-.6zM10.565 36.297c0-.33.27-.6.6-.6H14.8c.33 0 .6.27.6.6 0 .33-.27.6-.6.6h-3.635c-.33 0-.6-.27-.6-.6zM28.05 19.014v.023c0 .067 0 .135-.008.202 0 .112-.015.217-.022.33-.008.075-.015.15-.03.225a4.296 4.296 0 0 1-.06.33c-.015.074-.03.15-.052.224-.03.113-.06.225-.098.33-.022.075-.052.15-.082.225-.045.112-.09.225-.143.33l-.112.224c-.06.113-.12.225-.188.33a3.9 3.9 0 0 1-.15.225c-.082.112-.164.225-.247.33-.067.075-.127.15-.195.225a4.66 4.66 0 0 1-.337.33c-.082.074-.172.15-.262.224l-.18.135a6.653 6.653 0 0 1-.292.195c-.09.052-.18.112-.278.157a.888.888 0 0 1-.12.06 4.47 4.47 0 0 1-.831.33c-.3.09-.615.15-.93.187a6.5 6.5 0 0 1-.54.03c-.18 0-.367-.007-.539-.03a4.754 4.754 0 0 1-.93-.187 4.47 4.47 0 0 1-.831-.33l-.12-.06a9.276 9.276 0 0 1-.277-.157 6.591 6.591 0 0 1-.293-.195l-.18-.135c-.09-.075-.18-.142-.262-.225a4.662 4.662 0 0 1-.337-.33c-.068-.074-.135-.15-.195-.224a3.424 3.424 0 0 1-.247-.33 4.691 4.691 0 0 1-.337-.555l-.113-.224a4.325 4.325 0 0 1-.142-.33c-.03-.075-.053-.15-.083-.225a5.481 5.481 0 0 1-.097-.33c-.023-.075-.038-.15-.053-.225a4.296 4.296 0 0 1-.06-.33c-.007-.074-.022-.15-.03-.224a2.437 2.437 0 0 1-.022-.33c0-.067-.008-.135-.008-.202v-.023c0-.112.008-.217.015-.33.008-.075.008-.15.023-.225l.045-.33.045-.224c.022-.113.052-.225.082-.33l.068-.225c.037-.112.082-.225.127-.33.03-.074.067-.15.097-.224.053-.113.113-.225.173-.33l.135-.225c.075-.112.15-.225.232-.33l.18-.224c.097-.113.195-.225.3-.33a5.216 5.216 0 0 1 .637-.54c.007-.007.015-.007.015-.015.112-.082.225-.15.337-.225.067-.045.142-.082.21-.12.142-.075.292-.15.442-.21.21-.09.427-.164.652-.224.255-.068.525-.12.794-.15.18-.015.36-.03.54-.03.18 0 .367.007.54.03.27.03.54.075.794.15.225.06.442.135.652.225a4.766 4.766 0 0 1 .652.33c.12.067.233.142.337.224.008.008.015.008.015.015.135.098.27.202.398.315.082.075.165.15.24.225.105.105.21.217.307.33l.18.224c.082.105.157.218.232.33l.135.225c.06.105.12.217.172.33.038.075.068.15.098.224.045.105.09.218.127.33.023.075.053.15.068.225.03.105.06.217.082.33l.045.225c.023.112.037.217.045.33l.022.224c.015.113.023.225.023.33z" fill="#ABABB5"/>
        <path fill-rule="evenodd" clip-rule="evenodd" d="M24.872 14.27h-3.98c.21-.09.428-.165.653-.225h2.675c.225.06.442.135.652.225zM25.87 14.824h-5.967c.113-.082.225-.15.338-.224h5.29c.113.067.226.142.338.224zM26.521 15.371h-7.277c.075-.075.157-.15.24-.225h6.805c.082.075.157.15.232.225zM27.008 15.926h-8.244l.18-.225h7.884l.18.225zM27.368 16.48h-8.971l.134-.224h8.702c.052.075.097.15.135.225zM27.645 17.028h-9.518c.03-.075.067-.15.097-.225h9.316c.038.082.075.15.105.225zM27.84 17.582h-9.908l.067-.225h9.773l.068.225zM27.967 18.137h-10.17l.045-.225h10.08l.045.225zM28.035 18.684H17.73c.007-.075.007-.15.022-.225h10.26c.015.082.015.15.023.225zM28.05 19.014v.022c0 .068 0 .135-.008.202h-10.32c0-.067-.007-.134-.007-.202v-.022H28.05zM28.02 19.568c-.007.075-.015.15-.03.225H17.775c-.007-.075-.022-.15-.03-.225H28.02zM27.93 20.123c-.015.075-.03.15-.052.225h-9.99c-.023-.075-.038-.15-.053-.225H27.93zM27.78 20.67c-.023.075-.053.15-.083.225h-9.63c-.03-.075-.053-.15-.083-.225h9.796zM27.563 21.225l-.112.224h-9.136l-.113-.224h9.361zM27.262 21.78a3.85 3.85 0 0 1-.15.224H18.66a3.9 3.9 0 0 1-.15-.225h8.753zM26.858 22.327c-.067.075-.127.15-.195.225h-7.562c-.067-.075-.135-.15-.195-.225h7.952zM26.326 22.88c-.082.076-.172.15-.262.226H19.7c-.09-.075-.18-.143-.262-.225h6.887zM25.592 23.436c-.09.052-.18.112-.277.157a.9.9 0 0 1-.12.06h-4.617l-.12-.06c-.098-.052-.187-.105-.277-.157h5.41zM23.426 24.17c.323-.03.63-.097.93-.187H21.41c.3.09.615.15.93.188h1.086z" fill="#F0F0F3"/>
        <path fill-rule="evenodd" clip-rule="evenodd" d="M23.68 13.903v10.268h-1.588V13.903c.262-.015.524-.03.794-.03s.532.008.795.03z" fill="#F0F0F3"/>
        <path fill-rule="evenodd" clip-rule="evenodd" d="M19.88 14.84v8.439l.293.195c.09.052.18.112.278.157V14.465c-.076.037-.143.082-.21.12-.12.067-.233.142-.338.225l-.022.03zM25.87 14.824l-.338-.225c-.067-.045-.142-.082-.21-.12V23.632c.098-.053.188-.105.278-.158.097-.06.194-.127.292-.195V14.84l-.023-.015zM28.027 34.026v.022c0 .068 0 .135-.007.203 0 .112-.015.217-.023.33-.007.074-.014.15-.03.224a4.336 4.336 0 0 1-.06.33 4.263 4.263 0 0 1-.232.78c-.045.112-.09.224-.142.33l-.113.224c-.06.112-.12.225-.187.33-.045.075-.097.15-.15.225-.082.112-.165.224-.247.33-.068.074-.128.15-.195.224a4.703 4.703 0 0 1-.337.33c-.083.075-.173.15-.263.225l-.18.135c-.097.067-.194.135-.292.195-.09.052-.18.112-.277.157a.888.888 0 0 1-.12.06 4.47 4.47 0 0 1-.832.33c-.3.09-.614.15-.93.187-.18.015-.359.03-.539.03a4.26 4.26 0 0 1-.54-.03 4.748 4.748 0 0 1-.929-.187 4.47 4.47 0 0 1-.832-.33l-.12-.06a9.152 9.152 0 0 1-.277-.157c-.097-.06-.195-.128-.292-.195l-.18-.135c-.09-.075-.18-.143-.262-.225a4.68 4.68 0 0 1-.532-.555 3.435 3.435 0 0 1-.248-.33c-.052-.074-.105-.15-.15-.224-.067-.105-.127-.218-.187-.33l-.113-.225c-.052-.105-.097-.217-.142-.33-.03-.075-.052-.15-.082-.224a5.461 5.461 0 0 1-.21-.885c-.008-.075-.023-.15-.03-.225a2.436 2.436 0 0 1-.023-.33c0-.067-.007-.134-.007-.202v-.022c0-.113.007-.218.015-.33.007-.075.007-.15.022-.225l.045-.33.045-.224c.023-.113.053-.225.083-.33l.067-.225c.038-.112.083-.225.128-.33.03-.075.067-.15.097-.225.052-.112.112-.224.172-.33l.135-.224c.075-.113.15-.225.233-.33l.18-.225c.097-.112.194-.225.3-.33a5.22 5.22 0 0 1 .637-.54c.007-.007.014-.007.014-.014.113-.083.225-.15.337-.225.068-.045.143-.082.21-.12.143-.075.293-.15.443-.21.21-.09.427-.165.652-.225.254-.067.524-.12.794-.15.18-.015.36-.03.54-.03.18 0 .367.008.54.03.27.03.539.075.794.15.224.06.442.135.652.225a4.766 4.766 0 0 1 .652.33c.12.067.232.142.337.225.008.007.015.007.015.015a5.22 5.22 0 0 1 1.124 1.094c.083.105.158.217.233.33l.135.225c.06.104.12.217.172.33.037.074.067.15.097.224.045.105.09.218.128.33.022.075.052.15.067.225.03.105.06.217.083.33l.044.224c.023.113.038.218.046.33l.022.225c.015.112.023.225.023.33z" fill="#ABABB5"/>
        <path fill-rule="evenodd" clip-rule="evenodd" d="M24.85 29.282h-3.98c.21-.09.427-.165.652-.225h2.676c.225.06.442.135.652.225zM25.847 29.836H19.88c.112-.082.225-.15.337-.225h5.291c.113.068.225.143.338.225zM26.499 30.383h-7.277a7.02 7.02 0 0 1 .24-.225h6.805c.082.075.157.15.232.225zM26.985 30.938h-8.244l.18-.225h7.884l.18.225zM27.345 31.492h-8.971l.135-.224h8.701c.053.075.098.15.135.224zM27.623 32.04h-9.518c.03-.076.067-.15.097-.226h9.316c.037.083.075.15.105.225zM27.817 32.594H17.91l.068-.225h9.773l.067.225zM27.945 33.149h-10.17l.044-.225H27.9l.046.225zM28.012 33.696H17.707c.008-.075.008-.15.023-.225h10.26c.015.082.015.15.022.225zM28.027 34.025v.023c0 .067 0 .135-.007.202H17.7c0-.067-.008-.135-.008-.202v-.023h10.335zM27.998 34.58c-.008.075-.015.15-.03.225H17.753c-.008-.075-.023-.15-.03-.225h10.275zM27.908 35.135c-.015.075-.03.15-.053.225h-9.99c-.022-.075-.037-.15-.052-.225h10.095zM27.757 35.682c-.022.075-.052.15-.082.224h-9.63c-.03-.075-.053-.15-.083-.224h9.795zM27.54 36.236l-.112.225h-9.136l-.112-.225h9.36zM27.24 36.791c-.045.075-.097.15-.15.225h-8.454c-.052-.075-.105-.15-.15-.225h8.754zM26.836 37.338c-.068.075-.128.15-.195.225h-7.562a5.139 5.139 0 0 1-.195-.225h7.952zM26.304 37.893a8.26 8.26 0 0 1-.263.224h-6.363c-.09-.075-.18-.142-.262-.224h6.888zM25.57 38.447c-.09.053-.18.113-.278.158a.9.9 0 0 1-.12.06h-4.617l-.12-.06c-.097-.053-.187-.105-.277-.158h5.411zM23.404 39.182c.322-.03.63-.097.93-.187h-2.947c.3.09.615.15.93.188h1.087z" fill="#F0F0F3"/>
        <path fill-rule="evenodd" clip-rule="evenodd" d="M23.658 28.915v10.267H22.07V28.915c.263-.015.525-.03.795-.03s.532.007.794.03z" fill="#F0F0F3"/>
        <path fill-rule="evenodd" clip-rule="evenodd" d="M19.858 29.851v8.439l.293.195c.09.052.18.112.277.157V29.47a1.89 1.89 0 0 0-.21.12c-.12.067-.232.142-.337.225l-.023.037zM25.847 29.836l-.337-.225c-.068-.045-.143-.082-.21-.12v9.151c.097-.052.187-.105.277-.157.097-.06.195-.128.292-.195v-8.462l-.022.008zM41.24 19.014v.023c0 .067 0 .135-.007.202 0 .112-.015.217-.023.33-.007.075-.015.15-.03.225a4.296 4.296 0 0 1-.06.33 2.4 2.4 0 0 1-.052.224c-.03.113-.06.225-.097.33-.023.075-.053.15-.083.225-.045.112-.09.225-.142.33l-.113.224c-.06.113-.12.225-.187.33a3.85 3.85 0 0 1-.15.225c-.082.112-.165.225-.247.33-.068.075-.128.15-.195.225a4.66 4.66 0 0 1-.337.33 8.26 8.26 0 0 1-.263.224l-.18.135a6.594 6.594 0 0 1-.292.195c-.09.052-.18.112-.277.157a.882.882 0 0 1-.12.06 4.47 4.47 0 0 1-.832.33c-.3.09-.615.15-.93.187-.18.015-.36.03-.539.03a4.26 4.26 0 0 1-.54-.03 4.756 4.756 0 0 1-.929-.187 4.47 4.47 0 0 1-.832-.33l-.12-.06a9.032 9.032 0 0 1-.277-.157 6.536 6.536 0 0 1-.292-.195l-.18-.135c-.09-.075-.18-.142-.263-.225a4.682 4.682 0 0 1-.337-.33c-.067-.074-.135-.15-.195-.224a3.407 3.407 0 0 1-.247-.33 3.85 3.85 0 0 1-.15-.225c-.067-.105-.127-.217-.187-.33l-.113-.224a4.325 4.325 0 0 1-.142-.33c-.03-.075-.053-.15-.082-.225a5.555 5.555 0 0 1-.098-.33c-.022-.075-.037-.15-.052-.225a4.345 4.345 0 0 1-.06-.33c-.008-.074-.023-.15-.03-.224a2.437 2.437 0 0 1-.023-.33c0-.067-.007-.135-.007-.202v-.023c0-.112.007-.217.015-.33.007-.075.007-.15.022-.225l.045-.33.045-.224c.023-.113.053-.225.083-.33l.067-.225c.038-.112.083-.225.127-.33.03-.074.068-.15.098-.224.052-.113.112-.225.172-.33l.135-.225a5.124 5.124 0 0 1 .412-.554 6.21 6.21 0 0 1 .3-.33 5.195 5.195 0 0 1 .637-.54c.008-.007.015-.007.015-.015.113-.082.225-.15.337-.225.068-.045.143-.082.21-.12.143-.075.293-.15.442-.21.21-.09.428-.164.652-.224.255-.068.525-.12.795-.15.18-.015.36-.03.54-.03.18 0 .367.007.54.03.269.03.539.075.794.15.224.06.442.135.652.225a4.766 4.766 0 0 1 .652.33c.12.067.232.142.337.224.007.008.015.008.015.015a5.195 5.195 0 0 1 .944.87l.18.224c.082.105.157.218.232.33l.135.225c.06.105.12.217.173.33.037.075.067.15.097.224.045.105.09.218.128.33.022.075.052.15.067.225.03.105.06.217.082.33l.045.225c.023.112.038.217.045.33l.023.224c.022.113.022.225.022.33z" fill="#ABABB5"/>
        <path fill-rule="evenodd" clip-rule="evenodd" d="M38.07 14.27h-3.98c.21-.09.428-.165.653-.225h2.675c.225.06.443.135.653.225zM39.06 14.824h-5.966c.112-.082.225-.15.337-.224h5.291c.12.067.233.142.337.224zM39.72 15.371h-7.278a7.02 7.02 0 0 1 .24-.225h6.805c.075.075.158.15.233.225zM40.2 15.926h-8.245l.18-.225h7.884c.068.075.128.15.18.225zM40.566 16.48h-8.971l.135-.224h8.7l.136.225zM40.836 17.028h-9.519c.03-.075.068-.15.098-.225h9.323c.038.082.068.15.098.225zM41.031 17.582h-9.908l.067-.225h9.774c.022.075.052.15.067.225zM41.166 18.137h-10.17l.045-.225h10.08l.045.225zM41.233 18.684H30.928c.007-.075.007-.15.022-.225h10.26l.023.225zM41.24 19.014v.022c0 .068 0 .135-.007.202H30.921c0-.067-.008-.134-.008-.202v-.022h10.328zM41.211 19.568c-.008.075-.015.15-.03.225H30.973c-.007-.075-.022-.15-.03-.225h10.268zM41.129 20.123c-.015.075-.03.15-.053.225h-9.99a2.436 2.436 0 0 1-.053-.225H41.13zM40.979 20.67c-.023.075-.053.15-.083.225h-9.638c-.03-.075-.052-.15-.082-.225h9.803zM40.754 21.225l-.113.224h-9.128l-.113-.224h9.354zM40.454 21.78a3.85 3.85 0 0 1-.15.224H31.85a3.9 3.9 0 0 1-.15-.225h8.754zM40.056 22.327c-.067.075-.127.15-.195.225H32.3c-.067-.075-.135-.15-.194-.225h7.951zM39.524 22.88a8.15 8.15 0 0 1-.262.226h-6.363c-.09-.075-.18-.143-.262-.225h6.887zM38.79 23.436c-.09.052-.18.112-.278.157a.894.894 0 0 1-.12.06h-4.624l-.12-.06a8.942 8.942 0 0 1-.277-.157h5.419zM36.624 24.17c.323-.03.63-.097.93-.187h-2.946c.3.09.615.15.93.188h1.087z" fill="#F0F0F3"/>
        <path fill-rule="evenodd" clip-rule="evenodd" d="M36.871 13.903v10.268h-1.589V13.903c.263-.015.525-.03.795-.03s.532.008.794.03z" fill="#F0F0F3"/>
        <path fill-rule="evenodd" clip-rule="evenodd" d="M33.08 14.84v8.439l.291.195c.09.052.18.112.278.157V14.465c-.075.037-.143.082-.21.12-.12.067-.233.142-.337.225l-.023.03zM39.06 14.824l-.338-.225c-.067-.045-.142-.082-.21-.12V23.632c.098-.053.188-.105.278-.158.097-.06.195-.127.292-.195V14.84l-.022-.015zM41.218 34.026v.022c0 .068 0 .135-.008.203 0 .112-.015.217-.022.33-.008.074-.015.15-.03.224a4.287 4.287 0 0 1-.06.33c-.015.075-.03.15-.053.225-.03.112-.06.225-.097.33-.022.075-.052.15-.082.224-.045.113-.09.225-.143.33l-.112.225c-.06.112-.12.225-.188.33-.044.075-.097.15-.15.225-.082.112-.164.224-.247.33-.067.074-.127.15-.195.224a4.682 4.682 0 0 1-.337.33c-.082.075-.172.15-.262.225l-.18.135c-.097.067-.195.135-.292.195-.09.052-.18.112-.278.157a.895.895 0 0 1-.12.06 4.47 4.47 0 0 1-.831.33c-.3.09-.615.15-.93.187-.18.015-.36.03-.54.03-.18 0-.367-.007-.539-.03a4.748 4.748 0 0 1-.93-.187 4.47 4.47 0 0 1-.831-.33l-.12-.06a9.276 9.276 0 0 1-.277-.157c-.098-.06-.195-.128-.293-.195l-.18-.135c-.09-.075-.18-.143-.262-.225a4.68 4.68 0 0 1-.532-.555 3.435 3.435 0 0 1-.247-.33 4.71 4.71 0 0 1-.337-.555l-.113-.224a4.388 4.388 0 0 1-.142-.33c-.03-.075-.053-.15-.083-.224a5.388 5.388 0 0 1-.097-.33c-.023-.075-.038-.15-.053-.225a4.287 4.287 0 0 1-.06-.33c-.007-.075-.022-.15-.03-.225a2.436 2.436 0 0 1-.022-.33c0-.067-.008-.134-.008-.202v-.022c0-.113.008-.218.015-.33.008-.075.008-.15.023-.225l.045-.33.045-.224c.022-.113.052-.225.082-.33l.068-.225c.037-.112.082-.225.127-.33.03-.075.067-.15.097-.225.053-.112.113-.224.173-.33l.135-.224c.075-.113.15-.225.232-.33l.18-.225c.097-.112.195-.225.3-.33a5.22 5.22 0 0 1 .637-.54c.007-.007.015-.007.015-.014.112-.083.225-.15.337-.225.067-.045.142-.082.21-.12.142-.075.292-.15.442-.21.21-.09.427-.165.652-.225.255-.067.525-.12.794-.15a6.5 6.5 0 0 1 .54-.03c.18 0 .367.008.54.03.27.03.54.075.794.15.225.06.442.135.652.225a4.766 4.766 0 0 1 .652.33c.12.067.233.142.337.225.008.007.015.007.015.015a5.22 5.22 0 0 1 .945.87l.18.224c.082.105.157.217.232.33l.135.225c.06.104.12.217.172.33.038.074.068.15.098.224.045.105.09.218.127.33.023.075.053.15.068.225.03.105.06.217.082.33l.045.224c.022.113.037.218.045.33l.022.225c.023.112.023.225.023.33z" fill="#ABABB5"/>
        <path fill-rule="evenodd" clip-rule="evenodd" d="M38.048 29.282h-3.98c.21-.09.428-.165.652-.225h2.676c.225.06.442.135.652.225zM39.037 29.836h-5.966c.113-.082.225-.15.337-.225H38.7c.12.068.232.143.337.225zM39.697 30.383H32.42c.075-.075.157-.15.24-.225h6.805c.075.075.157.15.232.225zM40.177 30.938h-8.244l.18-.225h7.884c.067.075.127.15.18.225zM40.543 31.492h-8.97l.134-.224h8.701l.135.224zM40.813 32.04h-9.518c.03-.076.067-.15.097-.226h9.316c.045.083.075.15.105.225zM41.008 32.594h-9.907l.067-.225h9.773c.023.075.052.15.067.225zM41.144 33.149h-10.17l.045-.225h10.08l.045.225zM41.21 33.696H30.905c.008-.075.008-.15.023-.225h10.26c.007.082.015.15.022.225zM41.218 34.025v.023c0 .067 0 .135-.007.202H30.898c0-.067-.007-.135-.007-.202v-.023h10.327zM41.189 34.58c-.008.075-.015.15-.03.225H30.95c-.008-.075-.023-.15-.03-.225h10.268zM41.106 35.135c-.015.075-.03.15-.052.225h-9.99c-.023-.075-.038-.15-.053-.225h10.095zM40.956 35.682c-.022.075-.052.15-.082.224h-9.638c-.03-.075-.053-.15-.083-.224h9.803zM40.731 36.236l-.112.225H31.49l-.112-.225h9.353zM40.431 36.791c-.044.075-.097.15-.15.225h-8.453c-.053-.075-.105-.15-.15-.225h8.753zM40.034 37.338c-.068.075-.128.15-.195.225h-7.562a5.207 5.207 0 0 1-.195-.225h7.952zM39.502 37.893c-.083.075-.172.15-.263.224h-6.362c-.09-.075-.18-.142-.263-.224h6.888zM38.768 38.447c-.09.053-.18.113-.278.158a.912.912 0 0 1-.12.06h-4.616l-.12-.06c-.098-.053-.188-.105-.278-.158h5.412zM36.602 39.182c.322-.03.63-.097.93-.187h-2.947c.3.09.615.15.93.188h1.087z" fill="#F0F0F3"/>
        <path fill-rule="evenodd" clip-rule="evenodd" d="M36.849 28.915v10.267h-1.59V28.915c.263-.015.525-.03.795-.03s.532.007.795.03z" fill="#F0F0F3"/>
        <path fill-rule="evenodd" clip-rule="evenodd" d="M33.057 29.851v8.439l.292.195c.09.052.18.112.277.157V29.47a1.888 1.888 0 0 0-.21.12c-.12.067-.232.142-.337.225l-.022.037zM39.037 29.836l-.337-.225c-.067-.045-.142-.082-.21-.12v9.151c.098-.052.188-.105.277-.157.098-.06.195-.128.293-.195v-8.462l-.023.008zM54.439 19.014v.023c0 .067 0 .135-.008.202 0 .112-.015.217-.022.33-.008.075-.015.15-.03.225a4.248 4.248 0 0 1-.06.33c-.015.074-.03.15-.053.224-.03.113-.06.225-.097.33-.023.075-.053.15-.083.225-.045.112-.09.225-.142.33l-.113.224c-.06.113-.12.225-.187.33-.045.075-.097.15-.15.225-.082.112-.165.225-.247.33-.068.075-.127.15-.195.225a4.662 4.662 0 0 1-.337.33c-.083.074-.173.15-.263.224l-.18.135a6.653 6.653 0 0 1-.292.195c-.09.052-.18.112-.277.157a.883.883 0 0 1-.12.06 4.47 4.47 0 0 1-.832.33c-.3.09-.614.15-.93.187-.179.015-.359.03-.539.03-.18 0-.367-.007-.54-.03a4.755 4.755 0 0 1-.929-.187 4.473 4.473 0 0 1-.832-.33l-.12-.06a9.276 9.276 0 0 1-.277-.157 6.653 6.653 0 0 1-.292-.195l-.18-.135c-.09-.075-.18-.142-.262-.225a4.66 4.66 0 0 1-.532-.554 3.423 3.423 0 0 1-.248-.33 3.9 3.9 0 0 1-.15-.225c-.067-.105-.127-.217-.187-.33l-.112-.224c-.053-.105-.098-.218-.143-.33-.03-.075-.052-.15-.082-.225a5.41 5.41 0 0 1-.098-.33c-.022-.075-.037-.15-.052-.225a4.296 4.296 0 0 1-.06-.33c-.008-.074-.023-.15-.03-.224a2.437 2.437 0 0 1-.023-.33c0-.067-.007-.135-.007-.202v-.023c0-.112.008-.217.015-.33.008-.075.008-.15.022-.225l.045-.33.045-.224c.023-.113.053-.225.083-.33l.067-.225c.038-.112.083-.225.128-.33.03-.074.067-.15.097-.224.053-.113.112-.225.172-.33l.135-.225c.075-.112.15-.225.233-.33l.18-.224c.097-.113.194-.225.3-.33.074-.075.157-.15.24-.225.127-.113.262-.217.396-.315.008-.007.015-.007.015-.015.113-.082.225-.15.338-.225.067-.045.142-.082.21-.12.142-.075.292-.15.442-.21.21-.09.427-.164.652-.224.255-.068.524-.12.794-.15.18-.015.36-.03.54-.03.18 0 .367.007.54.03.27.03.539.075.794.15.225.06.442.135.652.225a4.766 4.766 0 0 1 .652.33c.12.067.232.142.337.224.008.008.015.008.015.015.135.098.27.202.397.315a6.351 6.351 0 0 1 .547.555l.18.224c.083.105.158.218.233.33l.135.225c.06.105.12.217.172.33.037.075.067.15.097.224.045.105.09.218.128.33.022.075.052.15.067.225.03.105.06.217.083.33l.045.225c.022.112.037.217.045.33l.022.224c.015.113.023.225.023.33z" fill="#ABABB5"/>
        <path fill-rule="evenodd" clip-rule="evenodd" d="M51.26 14.27h-3.979c.21-.09.427-.165.652-.225h2.676c.225.06.442.135.652.225zM52.258 14.824h-5.966c.112-.082.225-.15.337-.224h5.291c.113.067.225.142.338.224zM52.91 15.371h-7.277c.075-.075.157-.15.24-.225h6.805c.082.075.157.15.232.225zM53.396 15.926h-8.244l.18-.225h7.885l.18.225zM53.756 16.48h-8.97l.134-.224h8.701c.053.075.098.15.135.225zM54.034 17.028h-9.518c.03-.075.067-.15.097-.225h9.316c.037.082.075.15.105.225zM54.228 17.582H44.32l.068-.225h9.773l.067.225zM54.356 18.137h-10.17l.044-.225h10.08l.046.225zM54.423 18.684H44.118c.008-.075.008-.15.023-.225H54.4c.015.082.015.15.022.225zM54.439 19.014v.022c0 .068 0 .135-.008.202h-10.32c0-.067-.008-.134-.008-.202v-.022H54.44zM54.409 19.568c-.008.075-.015.15-.03.225H44.164c-.008-.075-.023-.15-.03-.225h10.275zM54.319 20.123c-.015.075-.03.15-.053.225h-9.99a2.436 2.436 0 0 1-.052-.225h10.095zM54.169 20.67c-.023.075-.053.15-.083.225h-9.63c-.03-.075-.053-.15-.083-.225h9.796zM53.952 21.225l-.113.224h-9.136l-.112-.224h9.36zM53.651 21.78a3.9 3.9 0 0 1-.15.224h-8.454a3.85 3.85 0 0 1-.15-.225h8.754zM53.247 22.327c-.068.075-.128.15-.195.225H45.49a5.209 5.209 0 0 1-.195-.225h7.952zM52.715 22.88a8.15 8.15 0 0 1-.263.226H46.09c-.09-.075-.18-.143-.263-.225h6.888zM51.98 23.436c-.09.052-.18.112-.277.157a.9.9 0 0 1-.12.06h-4.616l-.12-.06c-.098-.052-.188-.105-.278-.157h5.411zM49.815 24.17c.322-.03.63-.097.93-.187h-2.947c.3.09.615.15.93.188h1.087z" fill="#F0F0F3"/>
        <path fill-rule="evenodd" clip-rule="evenodd" d="M50.07 13.903v10.268h-1.59V13.903c.263-.015.525-.03.795-.03s.532.008.794.03z" fill="#F0F0F3"/>
        <path fill-rule="evenodd" clip-rule="evenodd" d="M46.27 14.84v8.439l.292.195c.09.052.18.112.277.157V14.465c-.075.037-.142.082-.21.12-.12.067-.232.142-.337.225l-.023.03zM52.258 14.824l-.337-.225c-.068-.045-.143-.082-.21-.12V23.632c.097-.053.187-.105.277-.158.098-.06.203-.127.293-.195V14.84l-.023-.015zM54.416 34.026v.022c0 .068 0 .135-.007.203 0 .112-.015.217-.023.33-.007.074-.015.15-.03.224a4.287 4.287 0 0 1-.06.33 4.22 4.22 0 0 1-.232.78c-.045.112-.09.224-.142.33l-.113.224c-.06.112-.12.225-.187.33-.045.075-.098.15-.15.225a12.58 12.58 0 0 1-.248.33c-.067.074-.127.15-.194.224a4.68 4.68 0 0 1-.338.33c-.082.075-.172.15-.262.225l-.18.135c-.097.067-.195.135-.292.195-.09.052-.18.112-.277.157a.894.894 0 0 1-.12.06 4.47 4.47 0 0 1-.832.33c-.3.09-.615.15-.93.187a6.5 6.5 0 0 1-.54.03 4.26 4.26 0 0 1-.539-.03 4.747 4.747 0 0 1-.93-.187 4.47 4.47 0 0 1-.831-.33l-.12-.06a9.032 9.032 0 0 1-.277-.157c-.098-.06-.195-.128-.292-.195l-.18-.135c-.09-.075-.18-.143-.263-.225a4.682 4.682 0 0 1-.337-.33c-.067-.075-.135-.15-.195-.225a3.436 3.436 0 0 1-.247-.33 4.668 4.668 0 0 1-.337-.555l-.113-.224a4.307 4.307 0 0 1-.142-.33c-.03-.075-.053-.15-.083-.224a5.46 5.46 0 0 1-.097-.33c-.023-.075-.038-.15-.053-.225a4.287 4.287 0 0 1-.06-.33c-.007-.075-.022-.15-.03-.225a2.436 2.436 0 0 1-.022-.33c0-.067-.008-.134-.008-.202v-.022c0-.113.008-.218.015-.33.008-.075.008-.15.023-.225l.045-.33.045-.224c.022-.113.052-.225.082-.33l.068-.225a4.34 4.34 0 0 1 .127-.33c.03-.075.068-.15.098-.225.052-.112.112-.224.172-.33l.135-.224c.075-.113.15-.225.232-.33l.18-.225c.098-.112.195-.225.3-.33a5.22 5.22 0 0 1 .637-.54c.008-.007.015-.007.015-.014.112-.083.225-.15.337-.225.068-.045.143-.082.21-.12.143-.075.292-.15.442-.21.21-.09.427-.165.652-.225.255-.067.525-.12.795-.15.18-.015.36-.03.54-.03.18 0 .367.008.539.03.27.03.54.075.794.15.225.06.443.135.652.225a4.766 4.766 0 0 1 .652.33c.12.067.233.142.338.225.007.007.015.007.015.015a5.22 5.22 0 0 1 .944.87l.18.224c.082.105.157.217.232.33l.135.225a4.563 4.563 0 0 1 .27.554c.045.105.09.218.127.33.023.075.053.15.068.225.03.105.06.217.082.33l.045.224c.023.113.038.218.045.33l.023.225c.015.112.022.225.022.33z" fill="#ABABB5"/>
        <path fill-rule="evenodd" clip-rule="evenodd" d="M51.238 29.282h-3.98c.21-.09.428-.165.653-.225h2.675c.225.06.443.135.652.225zM52.235 29.836H46.27c.112-.082.224-.15.337-.225h5.291c.112.068.225.143.337.225zM52.888 30.383H45.61c.075-.075.158-.15.24-.225h6.805c.083.075.158.15.233.225zM53.374 30.938H45.13l.18-.225h7.884l.18.225zM53.734 31.492h-8.971l.135-.224h8.7c.053.075.098.15.136.224zM54.011 32.04h-9.518c.03-.076.068-.15.098-.226h9.315c.038.083.075.15.105.225zM54.206 32.594h-9.908l.067-.225h9.773l.068.225zM54.333 33.149h-10.17l.045-.225h10.08l.045.225zM54.4 33.696H44.097c.007-.075.007-.15.022-.225h10.26c.015.082.015.15.023.225zM54.416 34.025v.023c0 .067 0 .135-.007.202h-10.32c0-.067-.008-.135-.008-.202v-.023h10.335zM54.386 34.58c-.007.075-.015.15-.03.225H44.141c-.007-.075-.022-.15-.03-.225h10.276zM54.297 35.135c-.015.075-.03.15-.053.225h-9.99c-.023-.075-.038-.15-.053-.225h10.096zM54.146 35.682c-.022.075-.052.15-.082.224h-9.631c-.03-.075-.052-.15-.082-.224h9.795zM53.93 36.236l-.113.225H44.68l-.113-.225h9.361zM53.629 36.791c-.045.075-.098.15-.15.225h-8.454a3.902 3.902 0 0 1-.15-.225h8.754zM53.224 37.338c-.067.075-.127.15-.195.225h-7.562c-.067-.075-.135-.15-.194-.225h7.951zM52.692 37.893a8.26 8.26 0 0 1-.262.224h-6.363c-.09-.075-.18-.142-.262-.224h6.887zM51.958 38.447c-.09.053-.18.113-.277.158a.905.905 0 0 1-.12.06h-4.617l-.12-.06c-.097-.053-.187-.105-.277-.158h5.411zM49.792 39.182c.323-.03.63-.097.93-.187h-2.946c.3.09.615.15.93.188h1.086z" fill="#F0F0F3"/>
        <path fill-rule="evenodd" clip-rule="evenodd" d="M50.047 28.915v10.267h-1.589V28.915c.262-.015.525-.03.794-.03.27 0 .533.007.795.03z" fill="#F0F0F3"/>
        <path fill-rule="evenodd" clip-rule="evenodd" d="M46.247 29.851v8.439l.292.195c.09.052.18.112.278.157V29.47a1.89 1.89 0 0 0-.21.12c-.12.067-.233.142-.337.225l-.023.037zM52.236 29.836l-.338-.225c-.067-.045-.142-.082-.21-.12v9.151c.098-.052.188-.105.278-.157.097-.06.195-.128.292-.195v-8.462l-.022.008zM10.565 38.47c0-.33.27-.6.6-.6H14.8c.33 0 .6.27.6.6 0 .33-.27.6-.6.6h-3.635a.606.606 0 0 1-.6-.6z" fill="#ABABB5"/>
        <path fill-rule="evenodd" clip-rule="evenodd" d="M44.644 20.1a3.115 3.115 0 0 1 3.193-.742 4.49 4.49 0 0 0-.855.66c-.6.6-.997 1.357-1.161 2.166a4.764 4.764 0 0 1-1.177-2.084zm9.218-2.45a3.115 3.115 0 0 1-3.192.742 4.49 4.49 0 0 0 .854-.66c.6-.6.997-1.357 1.162-2.166.554.577.966 1.29 1.176 2.084zm-3.133-.712a3.16 3.16 0 0 1-.816.592 4.26 4.26 0 0 0-.577-3.425 4.74 4.74 0 0 1 2.308.644c0 .817-.33 1.604-.914 2.189zm-2.705-2.676a3.114 3.114 0 0 1 .742 3.193 4.486 4.486 0 0 0-.66-.855c-.6-.6-1.356-.996-2.166-1.161a4.763 4.763 0 0 1 2.084-1.177zm-2.893 2.218a3.13 3.13 0 0 1 2.78 1.732 4.26 4.26 0 0 0-3.425.577 4.718 4.718 0 0 1 .645-2.309zm2.638 4.325c.24-.24.517-.442.817-.592a4.26 4.26 0 0 0 .577 3.425 4.74 4.74 0 0 1-2.308-.645c.007-.817.33-1.603.914-2.188zm2.706 2.675a3.115 3.115 0 0 1-.742-3.192 4.236 4.236 0 0 0 2.825 2.016 4.765 4.765 0 0 1-2.083 1.177zm2.9-2.21a3.13 3.13 0 0 1-2.78-1.732 4.26 4.26 0 0 0 3.425-.577 4.74 4.74 0 0 1-.645 2.309zm-4.122-8.29a5.897 5.897 0 0 0-5.89 5.891 5.901 5.901 0 0 0 5.89 5.891 5.896 5.896 0 0 0 5.89-5.89 5.901 5.901 0 0 0-5.89-5.892z" fill="#3E3F46"/>
        <path fill-rule="evenodd" clip-rule="evenodd" d="M49.253 17.275c.884 0 1.596.712 1.596 1.597 0 .884-.712 1.596-1.596 1.596a1.593 1.593 0 0 1-1.597-1.596c0-.885.712-1.597 1.597-1.597z" fill="#F0F0F3"/>
        <path fill-rule="evenodd" clip-rule="evenodd" d="M49.92 17.425c.098.202.15.427.15.667 0 .884-.72 1.596-1.596 1.596-.24 0-.465-.052-.667-.15a1.598 1.598 0 0 0 3.05-.667 1.605 1.605 0 0 0-.937-1.446z" fill="#ABABB5"/>
        <path fill-rule="evenodd" clip-rule="evenodd" d="M44.644 35.09a3.115 3.115 0 0 1 3.193-.742 4.266 4.266 0 0 0-2.016 2.825 4.763 4.763 0 0 1-1.177-2.083zm9.218-2.451a3.115 3.115 0 0 1-3.192.742 4.49 4.49 0 0 0 .854-.66c.6-.6.997-1.356 1.162-2.166.554.578.966 1.29 1.176 2.084zm-3.133-.712c-.24.24-.517.442-.816.592a4.26 4.26 0 0 0-.577-3.425 4.74 4.74 0 0 1 2.308.644 3.1 3.1 0 0 1-.914 2.189zm-2.705-2.676a3.115 3.115 0 0 1 .742 3.193 4.486 4.486 0 0 0-.66-.854c-.6-.6-1.356-.997-2.166-1.162a4.764 4.764 0 0 1 2.084-1.177zm-2.893 2.219a3.131 3.131 0 0 1 2.78 1.731 4.26 4.26 0 0 0-3.425.577 4.718 4.718 0 0 1 .645-2.308zm2.638 4.324c.24-.24.517-.442.817-.592a4.26 4.26 0 0 0 .577 3.425 4.74 4.74 0 0 1-2.308-.644c.007-.817.33-1.604.914-2.189zm2.706 2.676a3.115 3.115 0 0 1-.742-3.193 4.236 4.236 0 0 0 2.825 2.016 4.764 4.764 0 0 1-2.083 1.177zm2.9-2.211a3.131 3.131 0 0 1-2.78-1.731 4.26 4.26 0 0 0 3.425-.577 4.74 4.74 0 0 1-.645 2.308zm-4.122-8.29a5.897 5.897 0 0 0-5.89 5.892 5.901 5.901 0 0 0 5.89 5.89 5.897 5.897 0 0 0 5.89-5.89 5.901 5.901 0 0 0-5.89-5.891z" fill="#3E3F46"/>
        <path fill-rule="evenodd" clip-rule="evenodd" d="M49.253 32.265c.884 0 1.596.712 1.596 1.596 0 .884-.712 1.596-1.596 1.596a1.593 1.593 0 0 1-1.597-1.596c0-.884.712-1.596 1.597-1.596z" fill="#F0F0F3"/>
        <path fill-rule="evenodd" clip-rule="evenodd" d="M49.92 32.414c.098.202.15.427.15.667 0 .884-.72 1.596-1.596 1.596-.24 0-.465-.052-.667-.15a1.598 1.598 0 0 0 3.05-.667 1.605 1.605 0 0 0-.937-1.446z" fill="#ABABB5"/>
        <path fill-rule="evenodd" clip-rule="evenodd" d="M31.46 20.176a3.115 3.115 0 0 1 3.193-.742 4.49 4.49 0 0 0-.854.66c-.6.599-.997 1.356-1.162 2.165a4.763 4.763 0 0 1-1.177-2.083zm9.219-2.451a3.115 3.115 0 0 1-3.193.742 4.49 4.49 0 0 0 .854-.66c.6-.6.997-1.356 1.162-2.166.555.577.967 1.29 1.177 2.084zm-3.133-.712a3.16 3.16 0 0 1-.817.592 4.26 4.26 0 0 0-.577-3.425 4.74 4.74 0 0 1 2.308.644 3.1 3.1 0 0 1-.914 2.189zm-2.706-2.676a3.115 3.115 0 0 1 .742 3.193 4.486 4.486 0 0 0-.66-.854c-.599-.6-1.356-.997-2.165-1.162a4.765 4.765 0 0 1 2.083-1.177zm-2.893 2.219a3.13 3.13 0 0 1 2.781 1.73 4.26 4.26 0 0 0-3.425.577 4.718 4.718 0 0 1 .644-2.307zm2.639 4.324c.24-.24.517-.442.817-.592a4.26 4.26 0 0 0 .577 3.425 4.74 4.74 0 0 1-2.309-.645 3.13 3.13 0 0 1 .915-2.188zm2.705 2.676a3.114 3.114 0 0 1-.742-3.193 4.236 4.236 0 0 0 2.825 2.016 4.764 4.764 0 0 1-2.083 1.177zm2.9-2.211a3.13 3.13 0 0 1-2.78-1.732 4.26 4.26 0 0 0 3.425-.577 4.74 4.74 0 0 1-.644 2.309zm-4.122-8.29a5.896 5.896 0 0 0-5.89 5.891 5.901 5.901 0 0 0 5.89 5.891 5.897 5.897 0 0 0 5.891-5.89 5.901 5.901 0 0 0-5.89-5.891z" fill="#3E3F46"/>
        <path fill-rule="evenodd" clip-rule="evenodd" d="M36.07 17.35c.884 0 1.596.712 1.596 1.596 0 .884-.712 1.596-1.596 1.596a1.593 1.593 0 0 1-1.596-1.596c0-.884.712-1.596 1.596-1.596z" fill="#F0F0F3"/>
        <path fill-rule="evenodd" clip-rule="evenodd" d="M36.736 17.5c.098.202.15.427.15.667 0 .884-.72 1.596-1.596 1.596-.24 0-.465-.052-.667-.15a1.598 1.598 0 0 0 3.05-.667 1.605 1.605 0 0 0-.936-1.446z" fill="#ABABB5"/>
        <path fill-rule="evenodd" clip-rule="evenodd" d="M31.46 35.165a3.115 3.115 0 0 1 3.193-.742c-.307.18-.592.405-.854.66-.6.599-.997 1.356-1.162 2.165a4.763 4.763 0 0 1-1.177-2.083zm9.219-2.45a3.115 3.115 0 0 1-3.193.741 4.49 4.49 0 0 0 .854-.66c.6-.6.997-1.356 1.162-2.165a4.764 4.764 0 0 1 1.177 2.083zm-3.133-.713c-.24.24-.517.442-.817.592a4.26 4.26 0 0 0-.577-3.425 4.74 4.74 0 0 1 2.308.645 3.1 3.1 0 0 1-.914 2.188zm-2.706-2.676a3.115 3.115 0 0 1 .742 3.193 4.486 4.486 0 0 0-.66-.854c-.599-.6-1.356-.997-2.165-1.162a4.765 4.765 0 0 1 2.083-1.177zm-2.893 2.219a3.131 3.131 0 0 1 2.781 1.731 4.26 4.26 0 0 0-3.425.577 4.718 4.718 0 0 1 .644-2.308zm2.639 4.324c.24-.24.517-.442.817-.592a4.26 4.26 0 0 0 .577 3.425 4.74 4.74 0 0 1-2.309-.644c.008-.817.33-1.604.915-2.189zm2.705 2.676a3.115 3.115 0 0 1-.742-3.193 4.235 4.235 0 0 0 2.825 2.016 4.763 4.763 0 0 1-2.083 1.177zm2.9-2.211a3.131 3.131 0 0 1-2.78-1.731 4.26 4.26 0 0 0 3.425-.577 4.74 4.74 0 0 1-.644 2.308zm-4.122-8.29a5.897 5.897 0 0 0-5.89 5.892 5.901 5.901 0 0 0 5.89 5.89 5.897 5.897 0 0 0 5.891-5.89 5.901 5.901 0 0 0-5.89-5.891z" fill="#3E3F46"/>
        <path fill-rule="evenodd" clip-rule="evenodd" d="M36.07 32.339c.884 0 1.596.712 1.596 1.596 0 .885-.712 1.597-1.596 1.597a1.593 1.593 0 0 1-1.596-1.597c0-.884.712-1.596 1.596-1.596z" fill="#F0F0F3"/>
        <path fill-rule="evenodd" clip-rule="evenodd" d="M36.736 32.49c.098.202.15.426.15.666 0 .885-.72 1.597-1.596 1.597-.24 0-.465-.053-.667-.15a1.598 1.598 0 0 0 3.05-.667 1.605 1.605 0 0 0-.936-1.447z" fill="#ABABB5"/>
        <path fill-rule="evenodd" clip-rule="evenodd" d="M18.278 20.265a3.115 3.115 0 0 1 3.192-.742 4.49 4.49 0 0 0-.854.66c-.6.6-.997 1.357-1.162 2.166a4.764 4.764 0 0 1-1.176-2.084zm9.218-2.45a3.115 3.115 0 0 1-3.193.742c.308-.18.592-.405.855-.66.6-.6.996-1.356 1.161-2.166a4.764 4.764 0 0 1 1.177 2.084zm-3.133-.712c-.24.24-.517.442-.817.592a4.26 4.26 0 0 0-.577-3.425 4.74 4.74 0 0 1 2.309.644 3.1 3.1 0 0 1-.915 2.189zm-2.705-2.676a3.115 3.115 0 0 1 .742 3.193 4.486 4.486 0 0 0-.66-.855c-.6-.6-1.356-.996-2.166-1.161a4.763 4.763 0 0 1 2.084-1.177zm-2.893 2.218a3.132 3.132 0 0 1 2.78 1.732 4.26 4.26 0 0 0-3.425.577 4.718 4.718 0 0 1 .645-2.309zm2.638 4.325c.24-.24.517-.442.817-.592a4.261 4.261 0 0 0 .577 3.425 4.74 4.74 0 0 1-2.308-.645c.007-.817.33-1.604.914-2.188zm2.706 2.675a3.115 3.115 0 0 1-.743-3.192 4.235 4.235 0 0 0 2.826 2.016 4.765 4.765 0 0 1-2.084 1.177zm2.9-2.21a3.131 3.131 0 0 1-2.78-1.732 4.26 4.26 0 0 0 3.425-.577 4.74 4.74 0 0 1-.645 2.309zm-4.122-8.29a5.897 5.897 0 0 0-5.89 5.891 5.901 5.901 0 0 0 5.89 5.891 5.897 5.897 0 0 0 5.89-5.89 5.901 5.901 0 0 0-5.89-5.891z" fill="#3E3F46"/>
        <path fill-rule="evenodd" clip-rule="evenodd" d="M22.886 17.44c.885 0 1.597.711 1.597 1.596 0 .884-.712 1.596-1.597 1.596a1.593 1.593 0 0 1-1.596-1.596c0-.885.712-1.597 1.596-1.597z" fill="#F0F0F3"/>
        <path fill-rule="evenodd" clip-rule="evenodd" d="M23.554 17.59c.097.202.15.427.15.667 0 .884-.72 1.596-1.596 1.596-.24 0-.465-.052-.668-.15a1.598 1.598 0 0 0 3.05-.667 1.605 1.605 0 0 0-.936-1.446z" fill="#ABABB5"/>
        <path fill-rule="evenodd" clip-rule="evenodd" d="M18.278 35.255a3.115 3.115 0 0 1 3.192-.742 4.49 4.49 0 0 0-.854.66c-.6.599-.997 1.356-1.162 2.165a4.764 4.764 0 0 1-1.176-2.083zm9.218-2.451a3.115 3.115 0 0 1-3.193.742c.308-.18.592-.405.855-.66.6-.6.996-1.356 1.161-2.166.555.578.967 1.29 1.177 2.084zm-3.133-.712a3.16 3.16 0 0 1-.817.592 4.26 4.26 0 0 0-.577-3.425 4.74 4.74 0 0 1 2.309.645c0 .816-.33 1.603-.915 2.188zm-2.705-2.676a3.115 3.115 0 0 1 .742 3.193 4.486 4.486 0 0 0-.66-.854c-.6-.6-1.356-.997-2.166-1.162a4.765 4.765 0 0 1 2.084-1.177zm-2.893 2.219a3.131 3.131 0 0 1 2.78 1.731 4.26 4.26 0 0 0-3.425.577 4.718 4.718 0 0 1 .645-2.308zm2.638 4.324c.24-.24.517-.442.817-.592a4.261 4.261 0 0 0 .577 3.425 4.74 4.74 0 0 1-2.308-.644c.007-.817.33-1.604.914-2.189zm2.706 2.676a3.115 3.115 0 0 1-.743-3.193 4.236 4.236 0 0 0 2.826 2.016 4.765 4.765 0 0 1-2.084 1.177zm2.9-2.211a3.13 3.13 0 0 1-2.78-1.731 4.26 4.26 0 0 0 3.425-.577 4.74 4.74 0 0 1-.645 2.308zm-4.122-8.29a5.897 5.897 0 0 0-5.89 5.892 5.901 5.901 0 0 0 5.89 5.89 5.896 5.896 0 0 0 5.89-5.89 5.901 5.901 0 0 0-5.89-5.891z" fill="#3E3F46"/>
        <path fill-rule="evenodd" clip-rule="evenodd" d="M22.886 32.43c.885 0 1.597.712 1.597 1.596 0 .884-.712 1.596-1.597 1.596a1.593 1.593 0 0 1-1.596-1.596c0-.884.712-1.596 1.596-1.596z" fill="#F0F0F3"/>
        <path fill-rule="evenodd" clip-rule="evenodd" d="M23.554 32.58c.097.202.15.426.15.666 0 .884-.72 1.596-1.596 1.596-.24 0-.465-.052-.668-.15a1.598 1.598 0 0 0 3.05-.667 1.605 1.605 0 0 0-.936-1.446z" fill="#ABABB5"/>
        <path fill-rule="evenodd" clip-rule="evenodd" d="M6.78 25.264H5.386c-.397 0-.704-.284-.704-.63v-7.127c0-.352.314-.63.704-.63H6.78v8.387z" fill="#6E6E78"/>
        <path fill-rule="evenodd" clip-rule="evenodd" d="M5.62 21.383v-4.864h-.668a.624.624 0 0 0-.622.637v5.553c.712 0 1.29-.592 1.29-1.326z" fill="#ABABB5"/>
        <path fill-rule="evenodd" clip-rule="evenodd" d="M6.78 38.987H5.386c-.397 0-.704-.285-.704-.63V31.23c0-.352.314-.63.704-.63H6.78v8.387z" fill="#6E6E78"/>
        <path fill-rule="evenodd" clip-rule="evenodd" d="M5.62 35.105v-4.864h-.668a.624.624 0 0 0-.622.637v5.554c.712 0 1.29-.592 1.29-1.327z" fill="#ABABB5"/>
        <path fill-rule="evenodd" clip-rule="evenodd" d="M7.747 7.637V7.6c0-.023 0-.045-.007-.075A.586.586 0 0 0 7.155 7H4.6c-.33 0-.6.27-.6.6 0 .33.27.6.6.6h1.948L6.563 49c0 .322.262.584.585.584h.022c.33 0 .592-.262.585-.584L7.747 7.637z" fill="#ABABB5"/>
        <path d="M16.951 46.901v-2.3h27.865v.966h-1.289l.248.622h-1.852v-.12a.405.405 0 0 0-.404-.412.397.397 0 0 0-.398.405v.84H23.217v-.84a.3.3 0 0 0-.3-.3.3.3 0 0 0-.3.3v.84h-2.683v-1.335h-.997v1.334h-1.986z" fill="#3F3E45"/>
        <path d="M41.924 46.19v1.087h2.533a.617.617 0 0 0 .615-.615v-.555l-3.148.083z" fill="#FBA615"/>
        <path d="M41.114 46.901H23.217v1.08h17.897V46.9zM22.617 46.901h-2.683v1.005h2.683V46.9z" fill="#F2994A"/>
        <path d="M7.763 11.872v37.129h2.975V46.49H9.576a.862.862 0 0 1-.861-.862V11.872h-.952z" fill="#3F3E45"/>
        <path d="M9.254 48.46a.742.742 0 1 0 0-1.483.742.742 0 0 0 0 1.484z" fill="#A5A5AD"/>
        <path d="m9.313 47.179.038.434.42.038v.12l-.42.037-.038.442h-.127l-.038-.442-.42-.037v-.12l.42-.038.038-.434h.127z" fill="#3B3C43"/>
    </g>
    <defs>
        <filter id="0z07zlpywa" x="0" y="0" width="64" height="64" filterUnits="userSpaceOnUse" color-interpolation-filters="sRGB">
            <feFlood flood-opacity="0" result="BackgroundImageFix"/>
            <feColorMatrix in="SourceAlpha" values="0 0 0 0 0 0 0 0 0 0 0 0 0 0 0 0 0 0 127 0" result="hardAlpha"/>
            <feOffset dy="4"/>
            <feGaussianBlur stdDeviation="2"/>
            <feComposite in2="hardAlpha" operator="out"/>
            <feColorMatrix values="0 0 0 0 0 0 0 0 0 0 0 0 0 0 0 0 0 0 0.25 0"/>
            <feBlend in2="BackgroundImageFix" result="effect1_dropShadow_57_6079"/>
            <feBlend in="SourceGraphic" in2="effect1_dropShadow_57_6079" result="shape"/>
        </filter>
    </defs>
</svg>
