<svg width="32" height="32" viewBox="0 0 32 32" fill="none" xmlns="http://www.w3.org/2000/svg">
    <g clip-path="url(#8ecxo33gqa)">
        <path d="M31.521 19.87c-2.137 8.572-10.82 13.788-19.393 11.651C3.558 29.384-1.659 20.702.48 12.131 2.615 3.56 11.298-1.659 19.87.48c8.573 2.137 13.79 10.82 11.652 19.392z" fill="#EEF3FB"/>
        <g clip-path="url(#9mupp4znkb)">
            <path d="m15.9 4-.162.547v15.87l.161.16 7.366-4.355L15.9 4z" fill="#343434"/>
            <path d="M15.9 4 8.532 16.223l7.367 4.354V4z" fill="#8C8C8C"/>
            <path d="m15.9 21.971-.091.11v5.654l.09.265 7.371-10.38-7.37 4.351z" fill="#3C3C3B"/>
            <path d="M15.9 28V21.97L8.532 17.62 15.9 28z" fill="#8C8C8C"/>
            <path d="m15.9 20.576 7.366-4.354-7.367-3.348v7.702z" fill="#141414"/>
            <path d="m8.533 16.222 7.367 4.354v-7.702l-7.367 3.348z" fill="#393939"/>
        </g>
    </g>
    <defs>
        <clipPath id="8ecxo33gqa">
            <path d="M0 16C0 7.163 7.163 0 16 0s16 7.163 16 16-7.163 16-16 16S0 24.837 0 16z" fill="#fff"/>
        </clipPath>
        <clipPath id="9mupp4znkb">
            <path fill="#fff" transform="translate(8.533 4)" d="M0 0h14.737v24H0z"/>
        </clipPath>
    </defs>
</svg>
