<svg width="64" height="60" viewBox="0 0 64 60" fill="none" xmlns="http://www.w3.org/2000/svg">
    <g filter="url(#ciy9qeir3a)">
        <path fill-rule="evenodd" clip-rule="evenodd" d="M55.564 10.117v23.995a5.978 5.978 0 0 1-5.983 5.983H12.049v4.436h41.22A6.735 6.735 0 0 0 60 37.801V16.441a6.726 6.726 0 0 0-4.436-6.325z" fill="#B7B4C7"/>
        <path fill-rule="evenodd" clip-rule="evenodd" d="M55.88 34.366V10.118a6.892 6.892 0 0 0-2.306-.406H12.049v30.687h37.81c3.322.013 6.021-2.7 6.021-6.033z" fill="#fff"/>
        <path fill-rule="evenodd" clip-rule="evenodd" d="M18.26 18.838c0-.558.456-1.014 1.014-1.014h6.147c.558 0 1.014.456 1.014 1.014s-.456 1.014-1.014 1.014h-6.147a1.017 1.017 0 0 1-1.014-1.014zM18.26 22.881c0-.558.456-1.014 1.014-1.014h6.147c.558 0 1.014.456 1.014 1.014s-.456 1.014-1.014 1.014h-6.147a1.017 1.017 0 0 1-1.014-1.014zM18.26 26.925c0-.558.456-1.014 1.014-1.014h6.147c.558 0 1.014.456 1.014 1.014s-.456 1.014-1.014 1.014h-6.147a1.017 1.017 0 0 1-1.014-1.014zM18.26 30.98c0-.557.456-1.013 1.014-1.013h6.147c.558 0 1.014.456 1.014 1.014s-.456 1.014-1.014 1.014h-6.147a1.025 1.025 0 0 1-1.014-1.014zM39.707 15.898a9.007 9.007 0 0 1 9.012 9.012 9.007 9.007 0 0 1-9.012 9.012 9.007 9.007 0 0 1-9.013-9.012 9.007 9.007 0 0 1 9.013-9.012z" fill="#ABABB5"/>
        <path fill-rule="evenodd" clip-rule="evenodd" d="M48.402 24.821v.038c0 .114 0 .228-.012.342 0 .19-.026.368-.038.558-.013.127-.026.254-.051.38-.025.19-.064.38-.102.558-.025.127-.05.254-.088.38-.05.19-.102.38-.165.558a4.586 4.586 0 0 1-.14.38c-.075.19-.151.38-.24.558l-.19.38a7.9 7.9 0 0 1-.317.558c-.076.127-.165.254-.254.38-.14.19-.279.38-.418.558-.114.127-.216.254-.33.38a7.93 7.93 0 0 1-.57.558c-.14.127-.292.254-.444.38l-.304.229c-.165.114-.33.228-.494.33-.152.088-.304.19-.47.265-.063.038-.139.076-.202.102a7.57 7.57 0 0 1-1.407.557 9.336 9.336 0 0 1-1.572.317c-.304.026-.608.051-.912.051-.305 0-.622-.013-.913-.05a8.037 8.037 0 0 1-1.572-.318 7.567 7.567 0 0 1-1.407-.557l-.203-.102c-.164-.088-.316-.177-.469-.266-.164-.101-.33-.215-.494-.33l-.304-.228c-.152-.126-.304-.24-.444-.38a7.908 7.908 0 0 1-.57-.558c-.114-.126-.228-.253-.33-.38a5.82 5.82 0 0 1-.418-.558 6.608 6.608 0 0 1-.254-.38c-.114-.177-.215-.367-.316-.558l-.19-.38a7.373 7.373 0 0 1-.241-.558c-.051-.126-.089-.253-.14-.38a9.258 9.258 0 0 1-.165-.558c-.038-.126-.063-.253-.088-.38a7.312 7.312 0 0 1-.102-.557c-.012-.127-.038-.254-.05-.38a4.131 4.131 0 0 1-.038-.559c0-.114-.013-.228-.013-.342v-.038c0-.19.013-.367.025-.558.013-.126.013-.253.038-.38l.076-.557.076-.38c.038-.19.09-.381.14-.558l.114-.38c.063-.19.14-.381.215-.558.051-.127.114-.254.165-.38.089-.19.19-.381.292-.558l.228-.38c.127-.19.253-.38.393-.558l.304-.38c.165-.19.33-.38.507-.558a8.797 8.797 0 0 1 1.078-.913c.012-.013.025-.013.025-.025.19-.14.38-.254.57-.38.114-.077.241-.14.355-.203.24-.127.495-.254.748-.355a8.083 8.083 0 0 1 1.103-.38 9.314 9.314 0 0 1 1.343-.254c.304-.026.609-.05.913-.05.304 0 .621.012.913.05.456.05.912.127 1.343.253.38.102.748.229 1.103.38.253.102.507.229.748.356.127.063.24.126.355.202.203.114.393.241.57.38.013.013.025.013.025.026a8.797 8.797 0 0 1 1.598 1.47c.1.127.202.254.304.38.14.178.266.368.393.558l.228.38a7.705 7.705 0 0 1 .456.939c.076.177.152.367.216.557.038.127.088.254.114.38.05.178.101.368.14.558l.075.38c.038.19.064.368.076.558l.038.38c.026.19.026.38.038.558z" fill="#ABABB5"/>
        <path fill-rule="evenodd" clip-rule="evenodd" d="M43.028 16.797h-6.731a8.07 8.07 0 0 1 1.103-.38h4.525c.38.101.748.228 1.103.38zM44.714 17.736h-10.09c.19-.14.38-.254.57-.38h8.95c.19.113.38.24.57.38zM45.817 18.66H33.509c.127-.126.266-.253.405-.38h11.51c.127.127.266.254.393.38zM46.64 19.599H32.697l.304-.38h13.335l.304.38zM47.249 20.538H32.076l.228-.38H47.02l.229.38zM47.718 21.462H31.62c.05-.127.114-.253.165-.38H47.54c.063.14.114.253.177.38zM48.047 22.4h-16.77l.114-.38h16.53c.05.126.088.253.126.38zM48.263 23.338h-17.2l.076-.38h17.048l.076.38zM48.377 24.263H30.948c.013-.127.013-.253.038-.38H48.34l.038.38zM48.402 24.821v.038c0 .114 0 .228-.012.342H30.936c0-.114-.013-.228-.013-.342v-.038h17.48zM48.352 25.759c-.013.127-.026.253-.051.38H31.024c-.012-.127-.038-.253-.05-.38h17.378zM48.2 26.697c-.026.127-.05.254-.089.38H31.215a4.11 4.11 0 0 1-.089-.38H48.2zM47.946 27.622a4.586 4.586 0 0 1-.14.38H31.518c-.05-.126-.088-.253-.14-.38h16.568zM47.579 28.56l-.19.38H31.937l-.19-.38H47.58zM47.072 29.498a6.608 6.608 0 0 1-.254.38h-14.31a6.608 6.608 0 0 1-.254-.38h14.818zM46.387 30.424c-.114.127-.215.253-.33.38H33.268c-.114-.127-.228-.253-.33-.38h13.45zM45.487 31.361c-.14.127-.292.254-.444.38H34.282c-.153-.126-.305-.24-.444-.38h11.649zM44.244 32.3c-.152.089-.304.19-.469.266-.063.038-.139.076-.202.101h-7.808l-.203-.101c-.165-.089-.317-.178-.47-.266h9.152zM40.582 33.542a8.035 8.035 0 0 0 1.571-.316h-4.981c.507.152 1.04.253 1.572.316h1.838z" fill="#F0F0F3"/>
        <path fill-rule="evenodd" clip-rule="evenodd" d="M41.012 16.177v17.365h-2.687V16.177c.444-.026.887-.051 1.344-.051.456 0 .9.013 1.343.05z" fill="#F0F0F3"/>
        <path fill-rule="evenodd" clip-rule="evenodd" d="M34.586 17.76V32.034l.494.33c.152.089.305.19.47.266V17.127c-.127.063-.242.127-.356.203-.203.114-.393.24-.57.38l-.038.05zM44.713 17.735c-.19-.139-.38-.253-.57-.38-.114-.076-.24-.14-.355-.203V32.63c.165-.089.317-.177.47-.266.164-.102.329-.216.493-.33V17.735h-.038z" fill="#ABABB5"/>
        <path fill-rule="evenodd" clip-rule="evenodd" d="M31.912 26.988a5.268 5.268 0 0 1 5.4-1.255 7.59 7.59 0 0 0-1.446 1.116 7.213 7.213 0 0 0-1.964 3.663 8.059 8.059 0 0 1-1.99-3.524zm15.59-4.145a5.268 5.268 0 0 1-5.4 1.255 7.593 7.593 0 0 0 1.446-1.115 7.215 7.215 0 0 0 1.964-3.664 8.058 8.058 0 0 1 1.99 3.524zm-5.298-1.204a5.348 5.348 0 0 1-1.382 1.001 7.206 7.206 0 0 0-.976-5.793c1.42.026 2.751.419 3.904 1.09a5.241 5.241 0 0 1-1.546 3.702zm-4.576-4.525a5.268 5.268 0 0 1 1.255 5.4 7.597 7.597 0 0 0-1.115-1.445 7.215 7.215 0 0 0-3.663-1.965 8.058 8.058 0 0 1 3.523-1.99zm-4.892 3.752a5.295 5.295 0 0 1 3.7 1.546c.406.406.749.875 1.002 1.382a7.206 7.206 0 0 0-5.793.976 7.978 7.978 0 0 1 1.09-3.904zm4.461 7.313a5.347 5.347 0 0 1 1.382-1 7.206 7.206 0 0 0 .976 5.793 8.017 8.017 0 0 1-3.904-1.091 5.295 5.295 0 0 1 1.546-3.702zm4.576 4.526a5.268 5.268 0 0 1-1.255-5.4 7.59 7.59 0 0 0 1.116 1.445 7.163 7.163 0 0 0 3.663 1.965 8.059 8.059 0 0 1-3.524 1.99zm4.905-3.74a5.295 5.295 0 0 1-3.7-1.546 5.348 5.348 0 0 1-1.002-1.382 7.206 7.206 0 0 0 5.793-.976 8.018 8.018 0 0 1-1.09 3.904zm-6.971-14.019c-5.501 0-9.963 4.475-9.963 9.963 0 5.489 4.475 9.963 9.963 9.963 5.501 0 9.963-4.474 9.963-9.963 0-5.488-4.474-9.963-9.963-9.963z" fill="#3E3F46"/>
        <path fill-rule="evenodd" clip-rule="evenodd" d="M39.707 22.21c1.495 0 2.7 1.204 2.7 2.7 0 1.495-1.205 2.7-2.7 2.7a2.694 2.694 0 0 1-2.7-2.7c0-1.496 1.204-2.7 2.7-2.7z" fill="#F0F0F3"/>
        <path fill-rule="evenodd" clip-rule="evenodd" d="M40.835 22.463c.165.342.254.722.254 1.128 0 1.496-1.217 2.7-2.7 2.7-.406 0-.786-.089-1.128-.254a2.702 2.702 0 0 0 5.159-1.128 2.715 2.715 0 0 0-1.585-2.446z" fill="#ABABB5"/>
        <path d="M19.439 46.077V43.58h30.268v1.04H48.3l.267.684H46.55v-.127a.438.438 0 1 0-.875-.013v.913h-19.43v-.913a.336.336 0 0 0-.33-.33.336.336 0 0 0-.33.33v.913h-2.915V44.62h-1.078v1.457H19.44z" fill="#3F3E45"/>
        <path d="M46.563 45.304v1.178h2.751a.676.676 0 0 0 .672-.671v-.609l-3.422.102z" fill="#FBA615"/>
        <path d="M45.69 46.077H26.244v1.179H45.69v-1.179zM25.599 46.077h-2.915v1.09h2.915v-1.09z" fill="#F2994A"/>
        <path d="M10.401 12.932v37.772h5.26V46.42h-2.053c-.836 0-1.52-.659-1.52-1.47V12.932H10.4z" fill="#3F3E45"/>
        <path fill-rule="evenodd" clip-rule="evenodd" d="M8.626 34.125H6.243a1.068 1.068 0 0 1-1.077-1.078V20.841c0-.608.482-1.077 1.077-1.077h2.383v14.36z" fill="#6E6E78"/>
        <path fill-rule="evenodd" clip-rule="evenodd" d="M6.763 27.483v-8.328h-1.14c-.61 0-1.065.482-1.065 1.09v9.507c1.216 0 2.205-1.014 2.205-2.269z" fill="#ABABB5"/>
        <path fill-rule="evenodd" clip-rule="evenodd" d="M10.401 5.72v-.014c0-.355-.177-.671-.444-.849a1.033 1.033 0 0 0-.583-.19H5.027C4.457 4.667 4 5.136 4 5.719c0 .583.444 1.052 1.014 1.052H8.36v43.996c0 .57.444 1.027 1.002 1.027H9.4a.994.994 0 0 0 1.001-1.026V5.718z" fill="#ABABB5"/>
        <path d="M13.038 49.753a1.255 1.255 0 1 0 0-2.51 1.255 1.255 0 0 0 0 2.51z" fill="#A5A5AD"/>
        <path d="m13.14 47.599.063.735.71.063v.203l-.71.063-.064.748h-.215l-.064-.748-.71-.063v-.203l.71-.063.064-.735h.215z" fill="#3B3C43"/>
    </g>
    <defs>
        <filter id="ciy9qeir3a" x="0" y="0" width="64" height="64" filterUnits="userSpaceOnUse" color-interpolation-filters="sRGB">
            <feFlood flood-opacity="0" result="BackgroundImageFix"/>
            <feColorMatrix in="SourceAlpha" values="0 0 0 0 0 0 0 0 0 0 0 0 0 0 0 0 0 0 127 0" result="hardAlpha"/>
            <feOffset dy="4"/>
            <feGaussianBlur stdDeviation="2"/>
            <feComposite in2="hardAlpha" operator="out"/>
            <feColorMatrix values="0 0 0 0 0 0 0 0 0 0 0 0 0 0 0 0 0 0 0.25 0"/>
            <feBlend in2="BackgroundImageFix" result="effect1_dropShadow_30_12546"/>
            <feBlend in="SourceGraphic" in2="effect1_dropShadow_30_12546" result="shape"/>
        </filter>
    </defs>
</svg>
