<svg width="106" height="106" viewBox="0 0 106 106" fill="none" xmlns="http://www.w3.org/2000/svg">
    <path fill-rule="evenodd" clip-rule="evenodd" d="m100.993 19.18.028 55.496a6.69 6.69 0 0 1-6.696 6.696H8.711v4.966h89.757A7.537 7.537 0 0 0 106 78.805l-.028-52.546a7.56 7.56 0 0 0-4.979-7.08z" fill="#C8C8C8"/>
    <path fill-rule="evenodd" clip-rule="evenodd" d="m101.375 74.988-.029-55.808a7.646 7.646 0 0 0-2.582-.454H8.683l.028 63h85.955c3.702 0 6.71-3.02 6.71-6.738z" fill="#fff"/>
    <path fill-rule="evenodd" clip-rule="evenodd" d="M12.428 27.62c0-.624.51-1.135 1.135-1.135h6.88c.624 0 1.135.511 1.135 1.135s-.51 1.135-1.135 1.135h-6.88c-.625 0-1.135-.51-1.135-1.135zM12.428 31.735c0-.625.51-1.135 1.135-1.135h6.88c.624 0 1.135.51 1.135 1.134 0 .625-.51 1.135-1.135 1.135h-6.88c-.625 0-1.135-.51-1.135-1.134zM12.428 35.834c0-.624.51-1.135 1.135-1.135h6.88c.624 0 1.135.51 1.135 1.135 0 .624-.51 1.135-1.135 1.135h-6.88c-.625 0-1.135-.51-1.135-1.135zM12.428 39.948c0-.624.51-1.135 1.135-1.135h6.88c.624 0 1.135.511 1.135 1.135 0 .625-.51 1.135-1.135 1.135h-6.88c-.625 0-1.135-.51-1.135-1.135zM12.428 44.063c0-.625.51-1.135 1.135-1.135h6.88c.624 0 1.135.51 1.135 1.135 0 .624-.51 1.134-1.135 1.134h-6.88c-.625-.014-1.135-.51-1.135-1.135zM12.428 48.162c0-.624.51-1.135 1.135-1.135h6.88c.624 0 1.135.511 1.135 1.135s-.51 1.135-1.135 1.135h-6.88c-.625 0-1.135-.51-1.135-1.135zM12.428 52.276c0-.624.51-1.134 1.135-1.134h6.88c.624 0 1.135.51 1.135 1.134 0 .625-.51 1.135-1.135 1.135h-6.88c-.625-.014-1.135-.51-1.135-1.135zM12.428 56.376c0-.624.51-1.135 1.135-1.135h6.88c.624 0 1.135.51 1.135 1.135 0 .624-.51 1.135-1.135 1.135h-6.88c-.625 0-1.135-.51-1.135-1.135zM12.428 60.49c0-.624.51-1.135 1.135-1.135h6.88c.624 0 1.135.511 1.135 1.135 0 .625-.51 1.135-1.135 1.135h-6.88c-.625 0-1.135-.51-1.135-1.135zM12.428 64.59c0-.624.51-1.135 1.135-1.135h6.88c.624 0 1.135.51 1.135 1.135 0 .624-.51 1.135-1.135 1.135h-6.88a1.13 1.13 0 0 1-1.135-1.135zM12.428 68.704c0-.624.51-1.135 1.135-1.135h6.88c.624 0 1.135.511 1.135 1.135s-.51 1.135-1.135 1.135h-6.88c-.625 0-1.135-.51-1.135-1.135zM45.525 35.99v.043c0 .128 0 .256-.014.383 0 .213-.028.412-.043.625-.014.141-.028.283-.056.425-.029.213-.071.426-.114.624a4.572 4.572 0 0 1-.1.426 8.007 8.007 0 0 1-.184.624c-.042.142-.099.284-.156.426-.085.212-.17.425-.27.624-.07.142-.14.284-.212.425a8.916 8.916 0 0 1-.354.625c-.086.142-.185.283-.284.425-.156.213-.312.426-.468.624-.128.142-.242.284-.37.426a8.88 8.88 0 0 1-.638.624c-.156.142-.326.284-.496.426l-.34.255c-.185.128-.37.255-.554.369-.17.1-.34.213-.525.298-.07.042-.156.085-.227.113a8.475 8.475 0 0 1-1.574.625c-.568.17-1.164.283-1.76.354-.34.029-.68.057-1.021.057a8.06 8.06 0 0 1-1.021-.057 8.992 8.992 0 0 1-1.76-.354 8.475 8.475 0 0 1-1.574-.625l-.227-.113c-.184-.1-.355-.199-.525-.298a12.478 12.478 0 0 1-.553-.369l-.34-.255c-.171-.142-.341-.27-.497-.426a8.88 8.88 0 0 1-.639-.624c-.127-.142-.255-.284-.369-.426a6.5 6.5 0 0 1-.468-.624c-.099-.142-.198-.283-.283-.425a8.916 8.916 0 0 1-.355-.625l-.213-.425c-.1-.199-.184-.412-.27-.624-.056-.142-.099-.284-.155-.426a10.372 10.372 0 0 1-.284-1.05 8.088 8.088 0 0 1-.114-.624c-.014-.142-.042-.284-.056-.425a4.626 4.626 0 0 1-.043-.625c0-.127-.014-.255-.014-.383v-.042c0-.213.014-.412.028-.624.014-.142.014-.284.043-.426.028-.213.057-.426.085-.624l.085-.426c.043-.213.1-.425.156-.624l.128-.426a8.13 8.13 0 0 1 .24-.624c.058-.142.129-.284.185-.425.1-.213.213-.426.327-.625l.255-.425c.142-.213.284-.426.44-.624l.34-.426c.185-.213.37-.426.568-.624.142-.142.298-.284.454-.426.24-.213.496-.411.752-.596.014-.014.028-.014.028-.028.213-.156.425-.284.638-.426.128-.085.27-.156.397-.227.27-.141.554-.283.837-.397a9.05 9.05 0 0 1 1.235-.425c.482-.128.993-.227 1.503-.284.34-.029.681-.057 1.022-.057.34 0 .695.014 1.021.057.511.057 1.022.142 1.504.284a9.05 9.05 0 0 1 1.234.425c.284.114.568.256.837.397.142.071.27.142.397.227.227.128.44.27.639.426.014.014.028.014.028.028a9.897 9.897 0 0 1 1.788 1.646l.34.426c.156.198.298.411.44.624l.255.425c.114.199.227.412.326.624.072.142.128.284.185.426.085.199.17.412.241.624.043.142.1.284.128.426.056.198.113.411.156.624l.085.426c.043.212.07.411.085.624l.043.425c.028.213.042.426.042.625z" fill="#ABABB5"/>
    <path fill-rule="evenodd" clip-rule="evenodd" d="M39.51 27.01h-7.533a9.05 9.05 0 0 1 1.234-.425h5.064a9.05 9.05 0 0 1 1.235.425zM41.397 28.06H30.105c.212-.156.425-.283.638-.425h10.015c.213.127.426.27.639.425zM42.631 29.096H28.856c.142-.141.298-.283.454-.425h12.881c.157.142.298.284.44.425zM43.553 30.146H27.948l.34-.425h14.925l.34.425zM44.234 31.196H27.253l.255-.426h16.47c.1.142.185.284.256.426zM44.759 32.231H26.742c.057-.142.128-.284.185-.425H44.56c.071.156.142.283.199.425zM45.127 33.281H26.373l.128-.425H45l.127.425zM45.369 34.33h-19.25l.084-.425h19.08c.03.142.058.284.086.426zM45.496 35.366H25.99c.014-.142.014-.284.043-.426h19.42c.03.157.03.284.043.426zM45.525 35.99v.043c0 .127 0 .255-.014.383H25.976c0-.128-.014-.255-.014-.383v-.043h19.563zM45.468 37.041a4.338 4.338 0 0 1-.057.426H26.075c-.014-.142-.042-.284-.056-.426h19.449zM45.297 38.09c-.028.143-.056.284-.099.426h-18.91a4.574 4.574 0 0 1-.1-.425h19.11zM45.014 39.126c-.042.142-.1.284-.156.426h-18.23c-.056-.142-.099-.284-.155-.426h18.541zM44.602 40.176l-.212.425H27.097l-.213-.425h17.718zM44.035 41.226c-.085.141-.184.283-.283.425H27.749c-.099-.142-.198-.284-.283-.425h16.57zM43.27 42.26c-.128.143-.242.285-.37.426H28.588a9.792 9.792 0 0 1-.37-.425H43.27zM42.262 43.31c-.156.142-.327.284-.497.426H29.721c-.17-.142-.34-.27-.496-.425h13.037zM40.871 44.36c-.17.1-.34.213-.525.298-.07.043-.155.085-.226.114h-8.74l-.226-.114c-.185-.099-.355-.198-.525-.298H40.87zM36.772 45.751a8.992 8.992 0 0 0 1.76-.354H32.955c.567.17 1.163.283 1.76.354h2.056z" fill="#F0F0F3"/>
    <path fill-rule="evenodd" clip-rule="evenodd" d="M37.255 26.316V45.75h-3.008V26.316c.497-.029.993-.057 1.504-.057.51 0 1.007.014 1.504.056z" fill="#F0F0F3"/>
    <path fill-rule="evenodd" clip-rule="evenodd" d="M30.061 28.09V44.062l.554.369c.17.1.34.213.525.298V27.38c-.142.07-.27.156-.398.227a4.98 4.98 0 0 0-.638.425l-.043.057zM41.396 28.06l-.638-.425c-.128-.085-.27-.156-.398-.227V44.73c.185-.1.355-.199.525-.298.185-.114.37-.241.553-.369V28.09l-.042-.028zM45.482 64.406v.042c0 .128 0 .256-.014.383 0 .213-.028.412-.043.624a4.4 4.4 0 0 1-.056.426 8.176 8.176 0 0 1-.114.624 4.639 4.639 0 0 1-.099.426c-.057.213-.114.425-.184.624-.043.142-.1.284-.157.426-.085.213-.17.425-.27.624-.07.142-.14.284-.212.425a8.877 8.877 0 0 1-.638 1.05c-.156.213-.312.426-.468.624-.128.142-.241.284-.37.426a8.86 8.86 0 0 1-.638.624c-.156.142-.326.284-.496.426l-.34.255c-.185.128-.37.255-.554.369-.17.1-.34.213-.525.298-.07.042-.156.085-.227.113a8.463 8.463 0 0 1-1.574.625c-.568.17-1.164.283-1.76.354-.34.029-.68.057-1.02.057-.341 0-.696-.014-1.022-.057a8.998 8.998 0 0 1-1.76-.354 8.46 8.46 0 0 1-1.574-.625l-.227-.113c-.184-.1-.355-.199-.525-.298-.184-.114-.369-.241-.553-.369a754.9 754.9 0 0 0-.34-.255c-.171-.142-.341-.27-.497-.426a8.86 8.86 0 0 1-1.008-1.05 6.5 6.5 0 0 1-.468-.624 8.877 8.877 0 0 1-.638-1.05l-.213-.425c-.1-.199-.184-.412-.27-.624-.056-.142-.099-.284-.155-.426-.071-.213-.128-.411-.185-.624-.042-.142-.07-.284-.1-.426a8.128 8.128 0 0 1-.113-.624c-.014-.142-.042-.284-.056-.425a4.61 4.61 0 0 1-.043-.625c0-.127-.014-.255-.014-.383v-.042c0-.213.014-.412.028-.625.015-.141.015-.283.043-.425.028-.213.057-.426.085-.624l.085-.426c.043-.213.1-.425.156-.624l.128-.426c.07-.212.156-.425.241-.624.057-.142.128-.283.184-.425.1-.213.213-.426.327-.625l.255-.425c.142-.213.284-.426.44-.624l.34-.426c.185-.213.37-.426.568-.624.142-.142.298-.284.454-.426.24-.213.496-.411.752-.596.014-.014.028-.014.028-.028.213-.156.425-.284.638-.426.128-.085.27-.156.398-.226.27-.142.553-.284.837-.398.397-.17.808-.312 1.234-.425.482-.128.993-.227 1.504-.284.34-.028.68-.057 1.02-.057.341 0 .696.014 1.022.057.511.057 1.022.142 1.504.284.426.113.837.255 1.234.425.284.114.568.256.837.398.142.07.27.141.398.226.226.128.44.27.638.426.014.014.028.014.028.028.256.185.51.383.752.596.156.142.312.284.454.426.199.198.397.411.582.624l.34.426c.156.198.298.411.44.624l.255.425a8.633 8.633 0 0 1 .511 1.05c.085.199.17.412.241.624.043.142.1.284.128.426.057.199.113.411.156.624l.085.426c.043.212.07.411.085.624l.043.425c.028.213.042.426.042.625z" fill="#ABABB5"/>
    <path fill-rule="evenodd" clip-rule="evenodd" d="M39.467 55.426h-7.533A9.05 9.05 0 0 1 33.168 55h5.064a9.05 9.05 0 0 1 1.235.426zM41.354 56.475H30.06c.213-.156.426-.283.639-.425h10.015c.213.128.426.27.639.425zM42.588 57.511H28.814c.141-.141.297-.283.453-.425H42.15c.156.142.297.284.44.425zM43.51 58.561H27.905l.34-.425H43.17l.34.425zM44.19 59.611H27.21l.255-.425h16.47c.1.141.185.283.256.425zM44.716 60.646H26.699c.057-.142.128-.283.185-.425h17.633c.071.156.142.283.199.425zM45.084 61.696H26.33l.128-.425h18.499l.127.425zM45.326 62.746h-19.25l.084-.426h19.08c.03.142.058.284.086.426zM45.453 63.781H25.947c.015-.142.015-.284.043-.425h19.42c.03.155.03.283.043.425zM45.482 64.405v.043c0 .128 0 .255-.014.383H25.933c0-.128-.014-.255-.014-.383v-.043h19.563zM45.425 65.456c-.014.142-.028.284-.057.426H26.032c-.014-.142-.042-.284-.056-.426h19.449zM45.254 66.506a4.572 4.572 0 0 1-.099.425h-18.91c-.043-.141-.071-.283-.1-.425h19.11zM44.971 67.541a5.14 5.14 0 0 1-.156.426h-18.23c-.056-.142-.099-.284-.155-.426H44.97zM44.56 68.59l-.213.426H27.054l-.213-.425h17.718zM43.992 69.64a7.347 7.347 0 0 1-.283.426H27.707a7.347 7.347 0 0 1-.284-.425h16.57zM43.227 70.676c-.128.142-.242.284-.37.425H28.545c-.128-.141-.256-.283-.37-.425h15.053zM42.219 71.726c-.156.141-.326.283-.497.425H29.678c-.17-.142-.34-.27-.496-.425h13.037zM40.828 72.775c-.17.1-.34.213-.525.298-.07.043-.155.085-.226.114h-8.74l-.226-.114c-.185-.099-.355-.198-.525-.298h10.242zM36.73 74.166a8.992 8.992 0 0 0 1.758-.355H32.913c.568.17 1.163.284 1.76.355h2.056z" fill="#F0F0F3"/>
    <path fill-rule="evenodd" clip-rule="evenodd" d="M37.212 54.73v19.436h-3.008V54.73c.497-.029.993-.057 1.504-.057.51 0 1.007.014 1.504.057z" fill="#F0F0F3"/>
    <path fill-rule="evenodd" clip-rule="evenodd" d="M30.019 56.504V72.478l.553.368c.17.1.34.213.525.298V55.78c-.142.071-.27.142-.398.227-.227.128-.44.27-.638.426l-.042.07zM41.353 56.476l-.638-.426c-.128-.085-.27-.156-.398-.227V73.145c.185-.1.355-.199.525-.298.185-.114.37-.241.553-.37V56.463l-.042.014zM70.492 35.99v.043c0 .128 0 .256-.014.383 0 .213-.029.412-.043.625-.014.141-.028.283-.056.425-.029.213-.071.426-.114.624-.028.142-.057.284-.1.426a8.007 8.007 0 0 1-.184.624c-.042.142-.099.284-.156.426-.085.212-.17.425-.27.624l-.212.425a8.916 8.916 0 0 1-.355.625c-.085.142-.184.283-.284.425-.155.213-.312.426-.468.624-.127.142-.24.284-.368.426a8.88 8.88 0 0 1-.639.624c-.156.142-.326.284-.496.426l-.34.255c-.185.128-.37.255-.554.369-.17.1-.34.213-.525.298-.07.042-.156.085-.227.113a8.475 8.475 0 0 1-1.575.625c-.567.17-1.163.283-1.759.354-.34.029-.68.057-1.021.057a8.06 8.06 0 0 1-1.022-.057 8.992 8.992 0 0 1-1.759-.354 8.475 8.475 0 0 1-1.574-.625l-.227-.113c-.185-.1-.355-.199-.525-.298a12.478 12.478 0 0 1-.553-.369l-.341-.255c-.17-.142-.34-.27-.497-.426a8.86 8.86 0 0 1-.638-.624c-.127-.142-.255-.284-.369-.426a6.5 6.5 0 0 1-.468-.624 7.333 7.333 0 0 1-.284-.425c-.127-.199-.24-.412-.354-.625l-.213-.425a8.259 8.259 0 0 1-.27-.624c-.056-.142-.099-.284-.156-.426a10.372 10.372 0 0 1-.283-1.05 8.088 8.088 0 0 1-.114-.624c-.014-.142-.042-.284-.057-.425a4.626 4.626 0 0 1-.042-.625c0-.127-.014-.255-.014-.383v-.042c0-.213.014-.412.028-.624.014-.142.014-.284.043-.426.028-.213.056-.426.085-.624l.085-.426c.042-.213.1-.425.156-.624l.128-.426a8.13 8.13 0 0 1 .24-.624c.057-.142.128-.284.185-.425.1-.213.213-.426.326-.625l.256-.425c.142-.213.284-.426.44-.624l.34-.426c.184-.213.369-.426.568-.624a9.875 9.875 0 0 1 1.206-1.021c.014-.015.028-.015.028-.029.212-.156.425-.284.638-.426.128-.085.27-.156.397-.227.27-.141.554-.283.837-.397a9.05 9.05 0 0 1 1.235-.425c.482-.128.992-.227 1.503-.284.34-.029.681-.057 1.022-.057.34 0 .695.014 1.021.057.51.057 1.022.142 1.504.284a9.05 9.05 0 0 1 1.234.425c.284.114.567.256.837.397.142.071.27.142.397.227.227.128.44.27.639.426.014.014.028.014.028.028a9.897 9.897 0 0 1 1.787 1.646l.34.426c.157.198.299.411.44.624l.256.425c.114.199.227.412.326.624.071.142.128.284.185.426.085.199.17.412.24.624.044.142.1.284.129.426.056.198.113.411.156.624l.085.426c.042.212.07.411.085.624l.042.425c.043.213.043.426.043.625z" fill="#ABABB5"/>
    <path fill-rule="evenodd" clip-rule="evenodd" d="M64.49 27.01h-7.532a9.05 9.05 0 0 1 1.234-.425h5.065a9.05 9.05 0 0 1 1.234.425zM66.365 28.06H55.072c.213-.156.426-.283.639-.425h10.015c.227.127.44.27.639.425zM67.613 29.096H53.838c.142-.141.298-.283.454-.425h12.881c.142.142.298.284.44.425zM68.52 30.146H52.915l.34-.425H68.18c.127.142.24.283.34.425zM69.215 31.196h-16.98l.255-.426h16.47l.255.426zM69.726 32.231H51.709c.057-.142.128-.284.184-.425h17.648c.071.156.128.283.185.425zM70.095 33.281H51.341l.127-.425h18.5c.042.141.099.283.127.425zM70.35 34.33H51.1l.085-.425h19.08l.085.426zM70.478 35.366H50.972c.014-.142.014-.284.042-.426h19.421c.014.157.029.284.043.426zM70.492 35.99v.043c0 .127 0 .255-.014.383h-19.52c0-.128-.015-.255-.015-.383v-.043h19.55zM70.435 37.041a4.4 4.4 0 0 1-.056.426H51.056c-.014-.142-.043-.284-.057-.426h19.435zM70.279 38.09a4.607 4.607 0 0 1-.1.426H51.27a4.639 4.639 0 0 1-.1-.425h19.11zM69.995 39.126c-.042.142-.1.284-.156.426H51.596c-.057-.142-.1-.284-.156-.426h18.555zM69.57 40.176l-.213.425H52.078c-.07-.142-.142-.283-.213-.425H69.57zM69.002 41.226a7.417 7.417 0 0 1-.283.425H52.716c-.099-.142-.198-.284-.283-.425h16.57zM68.25 42.26c-.127.143-.24.285-.368.426H53.568a9.795 9.795 0 0 1-.369-.425h15.052zM67.243 43.31c-.156.142-.326.284-.496.426H54.703c-.17-.142-.34-.27-.497-.425h13.037zM65.853 44.36c-.17.1-.34.213-.524.298a1.697 1.697 0 0 1-.227.114h-8.753l-.227-.114c-.185-.099-.355-.198-.525-.298h10.256zM61.754 45.751a8.99 8.99 0 0 0 1.759-.354h-5.576c.568.17 1.164.283 1.76.354h2.057z" fill="#F0F0F3"/>
    <path fill-rule="evenodd" clip-rule="evenodd" d="M62.221 26.316V45.75h-3.007V26.316c.496-.029.993-.057 1.504-.057.51 0 1.007.014 1.503.056z" fill="#F0F0F3"/>
    <path fill-rule="evenodd" clip-rule="evenodd" d="M55.043 28.09V44.062l.553.369c.17.1.34.213.525.298V27.38c-.142.07-.27.156-.397.227a4.98 4.98 0 0 0-.638.425l-.043.057zM66.364 28.06l-.639-.425c-.127-.085-.27-.156-.397-.227V44.73c.184-.1.355-.199.525-.298.184-.114.369-.241.553-.369V28.09l-.042-.028zM70.45 64.406v.042c0 .128 0 .256-.014.383 0 .213-.029.412-.043.624a4.369 4.369 0 0 1-.056.426c-.029.213-.071.426-.114.624a4.574 4.574 0 0 1-.1.426 8.007 8.007 0 0 1-.184.624 5.19 5.19 0 0 1-.156.426c-.085.213-.17.425-.27.624l-.212.425c-.114.213-.227.426-.355.625a7.402 7.402 0 0 1-.284.425c-.156.213-.312.426-.468.624-.127.142-.24.284-.368.426a8.902 8.902 0 0 1-.639.624c-.156.142-.326.284-.496.426l-.34.255c-.185.128-.37.255-.554.369-.17.1-.34.213-.525.298-.07.042-.156.085-.227.113a8.462 8.462 0 0 1-1.575.625c-.567.17-1.163.283-1.759.354-.34.029-.68.057-1.021.057a8.08 8.08 0 0 1-1.022-.057 9 9 0 0 1-1.759-.354 8.462 8.462 0 0 1-1.574-.625l-.227-.113c-.185-.1-.355-.199-.525-.298-.185-.114-.37-.241-.553-.369l-.34-.255c-.171-.142-.341-.27-.497-.426a8.902 8.902 0 0 1-.639-.624c-.128-.142-.255-.284-.369-.426a6.5 6.5 0 0 1-.468-.624 7.402 7.402 0 0 1-.284-.425c-.127-.199-.24-.412-.354-.625l-.213-.425c-.1-.199-.184-.412-.27-.624-.056-.142-.099-.284-.156-.426a10.372 10.372 0 0 1-.283-1.05 8.128 8.128 0 0 1-.114-.624c-.014-.142-.042-.284-.057-.425a4.626 4.626 0 0 1-.042-.625c0-.127-.014-.255-.014-.383v-.042c0-.213.014-.412.028-.625.014-.141.014-.283.043-.425.028-.213.056-.426.085-.624l.085-.426c.042-.213.1-.425.156-.624l.128-.426a8.13 8.13 0 0 1 .24-.624c.057-.142.128-.283.185-.425.1-.213.213-.426.326-.625l.256-.425c.142-.213.283-.426.44-.624l.34-.426c.184-.213.369-.426.568-.624.141-.142.297-.284.453-.426.242-.213.497-.411.752-.596.014-.014.029-.014.029-.028.213-.156.425-.284.638-.426.128-.085.27-.156.397-.226.27-.142.554-.284.837-.398.398-.17.809-.312 1.235-.425a10.43 10.43 0 0 1 1.503-.284c.34-.028.681-.057 1.022-.057.34 0 .695.014 1.021.057.51.057 1.021.142 1.504.284.425.113.837.255 1.234.425.284.114.567.256.837.398.142.07.27.141.397.226a5 5 0 0 1 .639.426c.014.014.028.014.028.028.255.185.51.383.752.596.156.142.312.284.454.426.198.198.397.411.582.624l.34.426c.156.198.298.411.44.624l.255.425c.113.199.227.412.326.625.071.142.128.283.185.425.085.199.17.412.24.624.044.142.1.284.129.426.056.199.113.411.156.624l.085.426c.042.212.07.411.085.624l.042.425c.043.213.043.426.043.625z" fill="#ABABB5"/>
    <path fill-rule="evenodd" clip-rule="evenodd" d="M64.449 55.426h-7.533A9.05 9.05 0 0 1 58.15 55h5.065a9.05 9.05 0 0 1 1.234.426zM66.322 56.475H55.029c.213-.156.426-.283.639-.425h10.015c.227.128.44.27.639.425zM67.57 57.511H53.797c.142-.141.298-.283.454-.425H67.13c.142.142.298.284.44.425zM68.478 58.561H52.873l.34-.425h14.925c.127.142.24.283.34.425zM69.173 59.611h-16.98l.255-.425h16.47l.255.425zM69.684 60.646H51.667c.057-.142.128-.283.184-.425h17.634c.085.156.142.283.199.425zM70.053 61.696H51.3l.127-.425h18.5c.042.141.099.283.127.425zM70.308 62.746h-19.25l.085-.426h19.08l.085.426zM70.436 63.781H50.93c.014-.142.014-.284.042-.425h19.421c.014.155.029.283.043.425zM70.45 64.405v.043c0 .128 0 .255-.014.383h-19.52c0-.128-.015-.255-.015-.383v-.043h19.55zM70.393 65.456c-.014.142-.028.284-.056.426H51.014c-.014-.142-.043-.284-.057-.426h19.435zM70.237 66.506c-.028.142-.057.284-.1.425h-18.91c-.042-.141-.07-.283-.1-.425h19.11zM69.953 67.541c-.042.142-.1.284-.156.426H51.554c-.057-.142-.1-.284-.157-.426h18.556zM69.528 68.59l-.213.426H52.036c-.07-.142-.142-.283-.213-.425h17.705zM68.96 69.64a7.347 7.347 0 0 1-.283.426H52.674a7.299 7.299 0 0 1-.283-.425h16.57zM68.209 70.676c-.128.142-.241.284-.369.425H53.526a9.915 9.915 0 0 1-.369-.425H68.21zM67.201 71.726c-.156.141-.326.283-.496.425H54.66c-.17-.142-.34-.27-.497-.425h13.037zM65.81 72.775c-.17.1-.34.213-.524.298a1.698 1.698 0 0 1-.227.114H56.32l-.227-.114c-.184-.099-.354-.198-.525-.298h10.243zM61.712 74.166a8.99 8.99 0 0 0 1.759-.355h-5.576c.568.17 1.164.284 1.76.355h2.057z" fill="#F0F0F3"/>
    <path fill-rule="evenodd" clip-rule="evenodd" d="M62.18 54.73v19.436h-3.008V54.73c.496-.029.993-.057 1.504-.057.51 0 1.007.014 1.503.057z" fill="#F0F0F3"/>
    <path fill-rule="evenodd" clip-rule="evenodd" d="M55.001 56.504V72.478l.553.368c.17.1.34.213.525.298V55.78c-.142.071-.27.142-.397.227-.227.128-.44.27-.639.426l-.042.07zM66.322 56.476l-.639-.426c-.127-.085-.27-.156-.397-.227V73.145c.185-.1.355-.199.525-.298.184-.114.369-.241.553-.37V56.463l-.042.014zM95.474 35.99v.043c0 .128 0 .256-.014.383 0 .213-.028.412-.042.625-.015.141-.029.283-.057.425-.028.213-.071.426-.114.624a4.572 4.572 0 0 1-.099.426c-.057.213-.113.425-.184.624-.043.142-.1.284-.156.426-.085.212-.17.425-.27.624-.07.142-.142.284-.213.425a8.837 8.837 0 0 1-.354.625c-.085.142-.185.283-.284.425-.156.213-.312.426-.468.624-.128.142-.241.284-.369.426a8.86 8.86 0 0 1-.638.624c-.157.142-.327.284-.497.426l-.34.255c-.185.128-.37.255-.554.369-.17.1-.34.213-.525.298-.07.042-.156.085-.227.113a8.48 8.48 0 0 1-1.574.625c-.568.17-1.163.283-1.76.354-.34.029-.68.057-1.02.057-.341 0-.696-.014-1.022-.057a8.99 8.99 0 0 1-1.76-.354 8.474 8.474 0 0 1-1.574-.625l-.227-.113c-.184-.1-.355-.199-.525-.298-.184-.114-.369-.241-.553-.369l-.34-.255c-.17-.142-.341-.27-.497-.426a8.88 8.88 0 0 1-.638-.624c-.128-.142-.256-.284-.37-.426a6.5 6.5 0 0 1-.467-.624 8.916 8.916 0 0 1-.638-1.05l-.214-.425c-.099-.199-.184-.412-.27-.624-.056-.142-.099-.284-.155-.426-.071-.213-.128-.411-.185-.624-.042-.142-.07-.284-.099-.426a8.136 8.136 0 0 1-.113-.624c-.015-.142-.043-.284-.057-.425a4.626 4.626 0 0 1-.043-.625c0-.127-.014-.255-.014-.383v-.042c0-.213.014-.412.029-.624.014-.142.014-.284.042-.426.028-.213.057-.426.085-.624l.085-.426c.043-.213.1-.425.156-.624l.128-.426a8.09 8.09 0 0 1 .241-.624c.057-.142.128-.284.185-.425.099-.213.212-.426.326-.625l.255-.425c.142-.213.284-.426.44-.624l.34-.426c.185-.213.37-.426.568-.624.142-.142.298-.284.454-.426.241-.213.496-.411.752-.596.014-.014.028-.014.028-.028.213-.156.426-.284.639-.426.127-.085.269-.156.397-.227.27-.141.553-.283.837-.397a9.05 9.05 0 0 1 1.234-.425c.482-.128.993-.227 1.504-.284.34-.029.68-.057 1.021-.057.34 0 .695.014 1.022.057.51.057 1.02.142 1.503.284a9.05 9.05 0 0 1 1.234.425c.284.114.568.256.837.397.142.071.27.142.398.227.227.128.44.27.638.426.014.014.028.014.028.028a9.877 9.877 0 0 1 2.128 2.072c.156.198.298.411.44.624l.255.425c.114.199.227.412.327.624.07.142.127.284.184.426.085.199.17.412.241.624.043.142.1.284.128.426.057.198.114.411.156.624l.085.426c.043.212.071.411.085.624l.043.425c.028.213.042.426.042.625z" fill="#ABABB5"/>
    <path fill-rule="evenodd" clip-rule="evenodd" d="M89.459 27.01h-7.533a9.05 9.05 0 0 1 1.234-.425h5.065a9.05 9.05 0 0 1 1.234.425zM91.346 28.06H80.054c.212-.156.425-.283.638-.425h10.016c.212.127.425.27.638.425zM92.58 29.096H78.807c.142-.141.298-.283.454-.425h12.88c.157.142.299.284.44.425zM93.502 30.146H77.897l.34-.425h14.925l.34.425zM94.183 31.196h-16.98l.254-.426h16.47c.1.142.185.284.256.426zM94.708 32.231H76.691c.057-.142.128-.284.185-.425h17.633c.071.156.142.283.199.425zM95.076 33.281H76.322l.128-.425h18.499l.127.425zM95.318 34.33h-19.25l.085-.425h19.08l.085.426zM95.446 35.366H75.939c.015-.142.015-.284.043-.426h19.421c.028.157.028.284.043.426zM95.474 35.99v.043c0 .127 0 .255-.014.383H75.925c0-.128-.014-.255-.014-.383v-.043h19.563zM95.417 37.041a4.369 4.369 0 0 1-.057.426H76.025c-.015-.142-.043-.284-.057-.426h19.45zM95.247 38.09a4.574 4.574 0 0 1-.1.426h-18.91c-.043-.142-.07-.283-.1-.425h19.11zM94.963 39.126c-.042.142-.099.284-.156.426h-18.23c-.056-.142-.098-.284-.155-.426h18.541zM94.552 40.176l-.213.425H77.046l-.213-.425h17.719zM93.985 41.226a7.417 7.417 0 0 1-.284.425H77.699c-.1-.142-.199-.284-.284-.425h16.57zM93.219 42.26c-.128.143-.241.285-.37.426H78.537c-.128-.142-.255-.283-.369-.425h15.052zM92.211 43.31c-.156.142-.326.284-.496.426H79.67c-.17-.142-.34-.27-.496-.425H92.21zM90.82 44.36c-.17.1-.34.213-.524.298-.071.043-.156.085-.227.114H81.33l-.227-.114c-.184-.099-.355-.198-.525-.298h10.243zM86.721 45.751a8.992 8.992 0 0 0 1.76-.354H82.905c.568.17 1.163.283 1.76.354h2.056z" fill="#F0F0F3"/>
    <path fill-rule="evenodd" clip-rule="evenodd" d="M87.204 26.316V45.75h-3.008V26.316c.497-.029.993-.057 1.504-.057.51 0 1.007.014 1.504.056z" fill="#F0F0F3"/>
    <path fill-rule="evenodd" clip-rule="evenodd" d="M80.01 28.09V44.062l.554.369c.17.1.34.213.525.298V27.38c-.142.07-.27.156-.397.227a4.98 4.98 0 0 0-.639.425l-.042.057zM91.346 28.06l-.638-.425c-.128-.085-.27-.156-.397-.227V44.73c.184-.1.354-.199.524-.298a7.52 7.52 0 0 0 .554-.369V28.09l-.043-.028zM95.431 64.406v.042c0 .128 0 .256-.014.383 0 .213-.028.412-.042.624a4.4 4.4 0 0 1-.057.426 8.176 8.176 0 0 1-.114.624 4.639 4.639 0 0 1-.099.426c-.057.213-.113.425-.184.624-.043.142-.1.284-.156.426-.085.213-.17.425-.27.624-.07.142-.142.284-.213.425-.113.213-.227.426-.354.625a7.347 7.347 0 0 1-.284.425c-.156.213-.312.426-.468.624-.128.142-.241.284-.369.426a8.86 8.86 0 0 1-.638.624c-.156.142-.327.284-.497.426l-.34.255c-.185.128-.37.255-.554.369-.17.1-.34.213-.525.298a1.698 1.698 0 0 1-.227.113 8.46 8.46 0 0 1-1.574.625c-.568.17-1.163.283-1.76.354-.34.029-.68.057-1.02.057-.341 0-.696-.014-1.022-.057a8.998 8.998 0 0 1-1.76-.354 8.46 8.46 0 0 1-1.574-.625l-.227-.113c-.184-.1-.355-.199-.525-.298-.184-.114-.369-.241-.553-.369a754.9 754.9 0 0 0-.34-.255c-.17-.142-.341-.27-.497-.426a8.86 8.86 0 0 1-1.007-1.05 6.518 6.518 0 0 1-.468-.624 8.877 8.877 0 0 1-.638-1.05l-.214-.425c-.099-.199-.184-.412-.27-.624-.056-.142-.098-.284-.155-.426-.071-.213-.128-.411-.185-.624a4.639 4.639 0 0 1-.099-.426 8.176 8.176 0 0 1-.113-.624c-.015-.142-.043-.284-.057-.425a4.61 4.61 0 0 1-.043-.625c0-.127-.014-.255-.014-.383v-.042c0-.213.014-.412.028-.625.015-.141.015-.283.043-.425.028-.213.057-.426.085-.624l.085-.426c.043-.213.1-.425.156-.624l.128-.426c.07-.212.156-.425.241-.624.057-.142.128-.283.185-.425.099-.213.212-.426.326-.625l.255-.425c.142-.213.284-.426.44-.624l.34-.426c.185-.213.37-.426.568-.624.142-.142.298-.284.454-.426.241-.213.496-.411.752-.596.014-.014.028-.014.028-.028.213-.156.426-.284.638-.426.128-.085.27-.156.398-.226.27-.142.553-.284.837-.398.397-.17.808-.312 1.234-.425.482-.128.993-.227 1.504-.284.34-.028.68-.057 1.021-.057.34 0 .695.014 1.022.057a8.8 8.8 0 0 1 1.503.284c.426.113.837.255 1.234.425.284.114.568.256.838.398.141.07.269.141.397.226a5 5 0 0 1 .638.426c.014.014.028.014.028.028a9.877 9.877 0 0 1 1.788 1.646l.34.426c.156.198.298.411.44.624l.255.425a8.633 8.633 0 0 1 .511 1.05c.085.199.17.412.241.624.043.142.1.284.128.426.057.199.114.411.156.624l.085.426c.043.212.071.411.085.624l.043.425c.028.213.043.426.043.625z" fill="#ABABB5"/>
    <path fill-rule="evenodd" clip-rule="evenodd" d="M89.416 55.426h-7.533A9.05 9.05 0 0 1 83.117 55h5.064a9.05 9.05 0 0 1 1.235.426zM91.303 56.475H80.011c.213-.156.425-.283.638-.425h10.016c.212.128.425.27.638.425zM92.538 57.511H78.763c.142-.141.298-.283.454-.425h12.88c.157.142.299.284.44.425zM93.46 58.561H77.854l.34-.425h14.924l.34.425zM94.14 59.611H77.16c.084-.142.17-.284.255-.425h16.47c.1.141.184.283.255.425zM94.665 60.646H76.648c.057-.142.128-.283.185-.425h17.633c.071.156.142.283.199.425zM95.034 61.696H76.279l.128-.425h18.499l.128.425zM95.275 62.746h-19.25l.084-.426H95.19l.085.426zM95.403 63.781H75.896c.015-.142.015-.284.043-.425H95.36c.028.155.028.283.043.425zM95.431 64.405v.043c0 .128 0 .255-.014.383H75.882c0-.128-.014-.255-.014-.383v-.043h19.563zM95.374 65.456c-.014.142-.028.284-.056.426H75.981c-.015-.142-.043-.284-.057-.426h19.45zM95.204 66.506c-.029.142-.057.284-.1.425h-18.91c-.043-.141-.07-.283-.1-.425h19.11zM94.92 67.541a5.14 5.14 0 0 1-.156.426H76.535c-.057-.142-.1-.284-.156-.426H94.92zM94.509 68.59l-.213.426H77.003l-.213-.425h17.719zM93.942 69.64a7.402 7.402 0 0 1-.284.426H77.656a7.347 7.347 0 0 1-.284-.425h16.57zM93.176 70.676c-.128.142-.242.284-.37.425H78.494a9.915 9.915 0 0 1-.369-.425h15.052zM92.168 71.726c-.156.141-.326.283-.497.425H79.627c-.17-.142-.34-.27-.496-.425h13.037zM90.778 72.775c-.17.1-.34.213-.525.298a1.698 1.698 0 0 1-.227.114h-8.739l-.227-.114a17.2 17.2 0 0 1-.525-.298h10.243zM86.678 74.166a8.99 8.99 0 0 0 1.76-.355H82.862c.568.17 1.164.284 1.76.355h2.056z" fill="#F0F0F3"/>
    <path fill-rule="evenodd" clip-rule="evenodd" d="M87.16 54.73v19.436h-3.007V54.73a26.11 26.11 0 0 1 1.504-.057c.51 0 1.007.014 1.504.057z" fill="#F0F0F3"/>
    <path fill-rule="evenodd" clip-rule="evenodd" d="M79.968 56.504V72.478l.553.368c.17.1.34.213.525.298V55.78c-.142.071-.27.142-.397.227-.227.128-.44.27-.639.426l-.042.07zM91.302 56.476l-.638-.426c-.128-.085-.27-.156-.397-.227V73.145c.184-.1.354-.199.525-.298.184-.114.368-.241.553-.37V56.463l-.043.014zM12.428 72.819c0-.625.51-1.135 1.135-1.135h6.88c.624 0 1.135.51 1.135 1.135 0 .624-.51 1.134-1.135 1.134h-6.88c-.625-.014-1.135-.51-1.135-1.135z" fill="#ABABB5"/>
    <path fill-rule="evenodd" clip-rule="evenodd" d="M76.932 38.047a5.895 5.895 0 0 1 4.156-1.716c.653 0 1.277.099 1.887.312-.582.34-1.12.766-1.617 1.248a8.074 8.074 0 0 0-2.199 4.1 9.02 9.02 0 0 1-2.227-3.944zm17.449-4.639a5.896 5.896 0 0 1-4.157 1.717c-.652 0-1.276-.1-1.886-.312a8.501 8.501 0 0 0 1.617-1.249 8.074 8.074 0 0 0 2.199-4.1 9.018 9.018 0 0 1 2.227 3.944zm-5.93-1.347a5.987 5.987 0 0 1-1.546 1.12 8.065 8.065 0 0 0-1.092-6.483 8.972 8.972 0 0 1 4.369 1.22 5.866 5.866 0 0 1-1.731 4.143zm-5.121-5.065a5.895 5.895 0 0 1 1.716 4.157c0 .652-.099 1.276-.312 1.886a8.501 8.501 0 0 0-1.248-1.617 8.074 8.074 0 0 0-4.1-2.199 9.019 9.019 0 0 1 3.944-2.227zm-5.476 4.2a5.927 5.927 0 0 1 4.142 1.73c.454.454.837.979 1.12 1.546a8.065 8.065 0 0 0-6.483 1.092 8.93 8.93 0 0 1 1.22-4.369zm4.993 8.185a5.983 5.983 0 0 1 1.547-1.12 8.066 8.066 0 0 0 1.092 6.483 8.973 8.973 0 0 1-4.37-1.22 5.926 5.926 0 0 1 1.731-4.143zm5.122 5.064a5.896 5.896 0 0 1-1.717-4.156c0-.653.1-1.277.312-1.887.34.582.766 1.12 1.249 1.617a8.018 8.018 0 0 0 4.1 2.199 9.018 9.018 0 0 1-3.944 2.227zm5.49-4.185a5.926 5.926 0 0 1-4.143-1.73 5.984 5.984 0 0 1-1.12-1.547 8.066 8.066 0 0 0 6.483-1.092 8.973 8.973 0 0 1-1.22 4.37zm-7.803-15.69c-6.157 0-11.15 5.008-11.15 11.15 0 6.143 5.008 11.151 11.15 11.151 6.157 0 11.15-5.008 11.15-11.15 0-6.143-5.007-11.15-11.15-11.15z" fill="#3E3F46"/>
    <path fill-rule="evenodd" clip-rule="evenodd" d="M85.657 32.7a3.015 3.015 0 0 1 3.022 3.02 3.015 3.015 0 0 1-3.022 3.023 3.015 3.015 0 0 1-3.021-3.022 3.015 3.015 0 0 1 3.021-3.022z" fill="#F0F0F3"/>
    <path fill-rule="evenodd" clip-rule="evenodd" d="M86.92 32.983c.184.383.283.809.283 1.263a3.024 3.024 0 0 1-3.022 3.022c-.453 0-.879-.1-1.262-.284a3.038 3.038 0 0 0 2.752 1.759 3.024 3.024 0 0 0 3.022-3.022 3.038 3.038 0 0 0-1.773-2.738z" fill="#ABABB5"/>
    <path fill-rule="evenodd" clip-rule="evenodd" d="M76.932 66.42a5.896 5.896 0 0 1 4.156-1.716c.653 0 1.277.1 1.887.312-.582.34-1.12.766-1.617 1.248a8.074 8.074 0 0 0-2.199 4.1 9.018 9.018 0 0 1-2.227-3.944zm17.449-4.639a5.895 5.895 0 0 1-4.157 1.717c-.652 0-1.276-.1-1.886-.312a8.501 8.501 0 0 0 1.617-1.248 8.075 8.075 0 0 0 2.199-4.1 9.019 9.019 0 0 1 2.227 3.943zm-5.93-1.347a5.985 5.985 0 0 1-1.546 1.12 8.065 8.065 0 0 0-1.092-6.483 8.973 8.973 0 0 1 4.369 1.22 5.866 5.866 0 0 1-1.731 4.143zm-5.121-5.065a5.895 5.895 0 0 1 1.716 4.157c0 .652-.099 1.277-.312 1.887a8.502 8.502 0 0 0-1.248-1.618 8.074 8.074 0 0 0-4.1-2.199 9.02 9.02 0 0 1 3.944-2.227zm-5.476 4.2a5.926 5.926 0 0 1 4.142 1.73c.454.454.837.979 1.12 1.546a8.066 8.066 0 0 0-6.483 1.092 8.93 8.93 0 0 1 1.22-4.369zm4.993 8.185a5.988 5.988 0 0 1 1.547-1.12 8.066 8.066 0 0 0 1.092 6.483 8.973 8.973 0 0 1-4.37-1.22 5.926 5.926 0 0 1 1.731-4.143zm5.122 5.064a5.896 5.896 0 0 1-1.717-4.156c0-.653.1-1.277.312-1.887.34.582.766 1.12 1.249 1.617a8.018 8.018 0 0 0 4.1 2.2 9.018 9.018 0 0 1-3.944 2.226zm5.49-4.185a5.927 5.927 0 0 1-4.143-1.73 5.987 5.987 0 0 1-1.12-1.547 8.065 8.065 0 0 0 6.483-1.092 8.973 8.973 0 0 1-1.22 4.37zm-7.803-15.69c-6.157 0-11.15 5.008-11.15 11.15 0 6.143 5.008 11.151 11.15 11.151 6.157 0 11.15-5.008 11.15-11.15 0-6.143-5.007-11.15-11.15-11.15z" fill="#3E3F46"/>
    <path fill-rule="evenodd" clip-rule="evenodd" d="M85.657 61.071a3.015 3.015 0 0 1 3.022 3.022 3.015 3.015 0 0 1-3.022 3.022 3.015 3.015 0 0 1-3.021-3.022 3.015 3.015 0 0 1 3.021-3.022z" fill="#F0F0F3"/>
    <path fill-rule="evenodd" clip-rule="evenodd" d="M86.92 61.355c.184.384.283.81.283 1.263a3.024 3.024 0 0 1-3.022 3.022c-.453 0-.879-.1-1.262-.284a3.038 3.038 0 0 0 2.752 1.76 3.024 3.024 0 0 0 3.022-3.023 3.038 3.038 0 0 0-1.773-2.738z" fill="#ABABB5"/>
    <path fill-rule="evenodd" clip-rule="evenodd" d="M51.979 38.19a5.895 5.895 0 0 1 4.156-1.717c.653 0 1.277.1 1.887.312-.582.34-1.12.767-1.617 1.249a8.074 8.074 0 0 0-2.2 4.1 9.018 9.018 0 0 1-2.226-3.944zm17.449-4.64a5.895 5.895 0 0 1-4.157 1.718c-.652 0-1.277-.1-1.887-.313a8.501 8.501 0 0 0 1.618-1.248 8.074 8.074 0 0 0 2.199-4.1 9.018 9.018 0 0 1 2.227 3.944zm-5.93-1.347a5.986 5.986 0 0 1-1.546 1.121 8.065 8.065 0 0 0-1.092-6.483 8.974 8.974 0 0 1 4.369 1.22 5.866 5.866 0 0 1-1.731 4.142zm-5.121-5.064a5.896 5.896 0 0 1 1.716 4.156c0 .653-.1 1.277-.312 1.887a8.496 8.496 0 0 0-1.248-1.617 8.075 8.075 0 0 0-4.1-2.199 9.02 9.02 0 0 1 3.944-2.227zM52.9 31.338a5.927 5.927 0 0 1 4.142 1.73c.454.455.837.98 1.12 1.547a8.065 8.065 0 0 0-6.483 1.092 8.929 8.929 0 0 1 1.22-4.37zm4.993 8.185a5.984 5.984 0 0 1 1.547-1.12 8.066 8.066 0 0 0 1.092 6.483 8.974 8.974 0 0 1-4.37-1.22 5.926 5.926 0 0 1 1.731-4.143zm5.122 5.065a5.896 5.896 0 0 1-1.717-4.157c0-.652.1-1.276.312-1.886.34.581.766 1.12 1.248 1.617a8.018 8.018 0 0 0 4.1 2.199 9.019 9.019 0 0 1-3.944 2.227zm5.49-4.185a5.927 5.927 0 0 1-4.143-1.73 5.987 5.987 0 0 1-1.12-1.547 8.065 8.065 0 0 0 6.483-1.092 8.972 8.972 0 0 1-1.22 4.369zm-7.803-15.69c-6.157 0-11.15 5.008-11.15 11.15 0 6.143 5.008 11.15 11.15 11.15 6.157 0 11.15-5.007 11.15-11.15 0-6.142-5.007-11.15-11.15-11.15z" fill="#3E3F46"/>
    <path fill-rule="evenodd" clip-rule="evenodd" d="M60.703 32.84a3.015 3.015 0 0 1 3.022 3.022 3.015 3.015 0 0 1-3.022 3.022 3.015 3.015 0 0 1-3.021-3.022 3.015 3.015 0 0 1 3.021-3.021z" fill="#F0F0F3"/>
    <path fill-rule="evenodd" clip-rule="evenodd" d="M61.965 33.125c.185.383.284.809.284 1.263a3.024 3.024 0 0 1-3.022 3.021c-.453 0-.88-.099-1.262-.283a3.038 3.038 0 0 0 2.752 1.759 3.024 3.024 0 0 0 3.022-3.022 3.038 3.038 0 0 0-1.774-2.738z" fill="#ABABB5"/>
    <path fill-rule="evenodd" clip-rule="evenodd" d="M51.979 66.562a5.896 5.896 0 0 1 4.156-1.717c.653 0 1.277.1 1.887.313-.582.34-1.12.766-1.617 1.248a8.074 8.074 0 0 0-2.2 4.1 9.018 9.018 0 0 1-2.226-3.944zm17.449-4.639a5.895 5.895 0 0 1-6.044 1.404 8.501 8.501 0 0 0 1.618-1.248 8.075 8.075 0 0 0 2.199-4.1 9.019 9.019 0 0 1 2.227 3.944zm-5.93-1.348a5.983 5.983 0 0 1-1.546 1.121 8.065 8.065 0 0 0-1.092-6.483 8.973 8.973 0 0 1 4.369 1.22 5.866 5.866 0 0 1-1.731 4.142zm-5.121-5.064a5.896 5.896 0 0 1 1.716 4.156c0 .653-.1 1.277-.312 1.887a8.494 8.494 0 0 0-1.248-1.617 8.074 8.074 0 0 0-4.1-2.199 9.02 9.02 0 0 1 3.944-2.227zM52.9 59.71a5.926 5.926 0 0 1 4.142 1.73c.454.455.837.98 1.12 1.547a8.066 8.066 0 0 0-6.483 1.092 8.928 8.928 0 0 1 1.22-4.369zm4.993 8.185a5.984 5.984 0 0 1 1.547-1.12 8.066 8.066 0 0 0 1.092 6.483 8.972 8.972 0 0 1-4.37-1.22 5.927 5.927 0 0 1 1.731-4.143zm5.122 5.065a5.896 5.896 0 0 1-1.717-4.157c0-.652.1-1.276.312-1.886.34.581.766 1.12 1.248 1.617a8.018 8.018 0 0 0 4.1 2.199 9.018 9.018 0 0 1-3.944 2.227zm5.49-4.185a5.927 5.927 0 0 1-4.143-1.73 5.987 5.987 0 0 1-1.12-1.547 8.065 8.065 0 0 0 6.483-1.092 8.972 8.972 0 0 1-1.22 4.369zm-7.803-15.69c-6.157 0-11.15 5.008-11.15 11.15 0 6.143 5.008 11.15 11.15 11.15 6.157 0 11.15-5.007 11.15-11.15 0-6.142-5.007-11.15-11.15-11.15z" fill="#3E3F46"/>
    <path fill-rule="evenodd" clip-rule="evenodd" d="M60.703 61.214a3.015 3.015 0 0 1 3.022 3.022 3.015 3.015 0 0 1-3.022 3.021 3.015 3.015 0 0 1-3.021-3.022 3.015 3.015 0 0 1 3.021-3.021z" fill="#F0F0F3"/>
    <path fill-rule="evenodd" clip-rule="evenodd" d="M61.965 61.497c.185.383.284.809.284 1.263a3.024 3.024 0 0 1-3.022 3.021c-.453 0-.88-.099-1.262-.283a3.038 3.038 0 0 0 2.752 1.759 3.024 3.024 0 0 0 3.022-3.022 3.038 3.038 0 0 0-1.774-2.738z" fill="#ABABB5"/>
    <path fill-rule="evenodd" clip-rule="evenodd" d="M27.026 38.36a5.895 5.895 0 0 1 4.156-1.717c.653 0 1.277.1 1.887.312-.582.34-1.12.766-1.617 1.249a8.074 8.074 0 0 0-2.2 4.1 9.019 9.019 0 0 1-2.226-3.944zm17.449-4.64a5.896 5.896 0 0 1-4.157 1.717c-.653 0-1.277-.099-1.887-.312a8.498 8.498 0 0 0 1.617-1.248 8.074 8.074 0 0 0 2.2-4.1 9.018 9.018 0 0 1 2.227 3.944zm-5.93-1.347a5.984 5.984 0 0 1-1.547 1.12 8.066 8.066 0 0 0-1.092-6.483 8.972 8.972 0 0 1 4.37 1.22 5.866 5.866 0 0 1-1.731 4.143zm-5.122-5.064a5.896 5.896 0 0 1 1.717 4.156c0 .653-.1 1.277-.312 1.887a8.497 8.497 0 0 0-1.248-1.617 8.074 8.074 0 0 0-4.1-2.2 9.018 9.018 0 0 1 3.943-2.226zm-5.475 4.199a5.927 5.927 0 0 1 4.142 1.73c.454.455.837.98 1.12 1.547a8.065 8.065 0 0 0-6.483 1.092 8.929 8.929 0 0 1 1.22-4.37zm4.993 8.185a5.985 5.985 0 0 1 1.546-1.12 8.065 8.065 0 0 0 1.092 6.483 8.973 8.973 0 0 1-4.369-1.22 5.927 5.927 0 0 1 1.731-4.143zm5.121 5.065a5.895 5.895 0 0 1-1.404-6.044c.34.582.766 1.121 1.248 1.618a8.018 8.018 0 0 0 4.1 2.199 9.02 9.02 0 0 1-3.944 2.227zm5.49-4.185a5.926 5.926 0 0 1-4.142-1.73 5.983 5.983 0 0 1-1.12-1.547 8.066 8.066 0 0 0 6.483-1.092 8.973 8.973 0 0 1-1.22 4.369zm-7.802-15.69c-6.157 0-11.15 5.008-11.15 11.15 0 6.143 5.007 11.15 11.15 11.15 6.157 0 11.15-5.007 11.15-11.15 0-6.142-5.007-11.15-11.15-11.15z" fill="#3E3F46"/>
    <path fill-rule="evenodd" clip-rule="evenodd" d="M35.75 33.01a3.015 3.015 0 0 1 3.02 3.022 3.015 3.015 0 0 1-3.02 3.022 3.015 3.015 0 0 1-3.023-3.022 3.015 3.015 0 0 1 3.022-3.021z" fill="#F0F0F3"/>
    <path fill-rule="evenodd" clip-rule="evenodd" d="M37.012 33.296c.185.383.284.809.284 1.263a3.024 3.024 0 0 1-3.022 3.021c-.454 0-.88-.1-1.262-.284a3.038 3.038 0 0 0 2.752 1.76 3.024 3.024 0 0 0 3.021-3.022 3.038 3.038 0 0 0-1.773-2.738z" fill="#ABABB5"/>
    <path fill-rule="evenodd" clip-rule="evenodd" d="M27.026 66.732a5.896 5.896 0 0 1 4.156-1.717c.653 0 1.277.1 1.887.312-.582.34-1.12.767-1.617 1.249a8.074 8.074 0 0 0-2.2 4.1 9.018 9.018 0 0 1-2.226-3.944zm17.449-4.64a5.895 5.895 0 0 1-4.157 1.718c-.653 0-1.277-.1-1.887-.313a8.498 8.498 0 0 0 1.617-1.248 8.074 8.074 0 0 0 2.2-4.1 9.02 9.02 0 0 1 2.227 3.944zm-5.93-1.347a5.981 5.981 0 0 1-1.547 1.12 8.066 8.066 0 0 0-1.092-6.483 8.974 8.974 0 0 1 4.37 1.22 5.866 5.866 0 0 1-1.731 4.143zm-5.122-5.064a5.896 5.896 0 0 1 1.717 4.156c0 .653-.1 1.277-.312 1.887a8.494 8.494 0 0 0-1.248-1.617 8.074 8.074 0 0 0-4.1-2.199 9.018 9.018 0 0 1 3.943-2.227zm-5.475 4.199a5.927 5.927 0 0 1 4.142 1.73c.454.455.837.98 1.12 1.547a8.066 8.066 0 0 0-6.483 1.092 8.928 8.928 0 0 1 1.22-4.37zm4.993 8.185a5.987 5.987 0 0 1 1.546-1.12 8.065 8.065 0 0 0 1.092 6.483 8.973 8.973 0 0 1-4.369-1.22 5.926 5.926 0 0 1 1.731-4.143zm5.121 5.065a5.895 5.895 0 0 1-1.716-4.157c0-.652.1-1.276.312-1.886.34.581.766 1.12 1.248 1.617a8.018 8.018 0 0 0 4.1 2.199 9.02 9.02 0 0 1-3.944 2.227zm5.49-4.185a5.927 5.927 0 0 1-4.142-1.73 5.985 5.985 0 0 1-1.12-1.547 8.065 8.065 0 0 0 6.483-1.092 8.973 8.973 0 0 1-1.22 4.369zm-7.802-15.69c-6.157 0-11.15 5.008-11.15 11.15 0 6.143 5.007 11.15 11.15 11.15 6.157 0 11.15-5.007 11.15-11.15 0-6.142-5.007-11.15-11.15-11.15z" fill="#3E3F46"/>
    <path fill-rule="evenodd" clip-rule="evenodd" d="M35.75 61.384a3.015 3.015 0 0 1 3.02 3.022 3.015 3.015 0 0 1-3.02 3.021 3.015 3.015 0 0 1-3.023-3.022 3.015 3.015 0 0 1 3.022-3.021z" fill="#F0F0F3"/>
    <path fill-rule="evenodd" clip-rule="evenodd" d="M37.012 61.668c.185.383.284.809.284 1.263a3.024 3.024 0 0 1-3.022 3.021c-.454 0-.88-.1-1.262-.284a3.038 3.038 0 0 0 2.752 1.76 3.024 3.024 0 0 0 3.021-3.022 3.038 3.038 0 0 0-1.773-2.738z" fill="#ABABB5"/>
    <path fill-rule="evenodd" clip-rule="evenodd" d="M5.263 47.822H2.625c-.752 0-1.334-.54-1.334-1.192V33.14c0-.667.596-1.192 1.334-1.192h2.638v15.875z" fill="#6E6E78"/>
    <path fill-rule="evenodd" clip-rule="evenodd" d="M3.064 40.474v-9.207H1.801c-.666 0-1.177.539-1.177 1.205v10.512c1.348 0 2.44-1.12 2.44-2.51z" fill="#ABABB5"/>
    <path fill-rule="evenodd" clip-rule="evenodd" d="M5.263 73.797H2.625c-.752 0-1.334-.539-1.334-1.191V59.115c0-.667.596-1.192 1.334-1.192h2.638v15.874z" fill="#6E6E78"/>
    <path fill-rule="evenodd" clip-rule="evenodd" d="M3.064 66.448v-9.207H1.801c-.666 0-1.177.54-1.177 1.206v10.512c1.348 0 2.44-1.12 2.44-2.51z" fill="#ABABB5"/>
    <path fill-rule="evenodd" clip-rule="evenodd" d="M7.093 14.456v-.071c0-.043 0-.085-.014-.142a1.11 1.11 0 0 0-1.107-.993H1.135C.51 13.25 0 13.76 0 14.385c0 .624.51 1.135 1.135 1.135h3.688l.029 77.23c0 .61.496 1.106 1.106 1.106h.043a1.09 1.09 0 0 0 1.106-1.106l-.014-78.294z" fill="#ABABB5"/>
    <path d="M24.514 88.778v-4.355h52.744v1.83h-2.44l.468 1.177h-3.504v-.227a.766.766 0 0 0-.766-.78.751.751 0 0 0-.752.766v1.589h-33.89v-1.589a.57.57 0 0 0-.568-.567.57.57 0 0 0-.567.567v1.589h-5.08v-2.525h-1.886v2.525h-3.76z" fill="#3F3E45"/>
    <path d="M71.782 87.43v2.057h4.795c.639 0 1.163-.524 1.163-1.163v-1.05l-5.958.156z" fill="#FBA615"/>
    <path d="M70.25 88.778H36.373v2.043H70.25v-2.043zM35.239 88.778H30.16v1.901h5.079v-1.9z" fill="#F2994A"/>
    <path d="M7.121 22.472V92.75h5.632v-4.753h-2.199a1.632 1.632 0 0 1-1.631-1.631V22.472H7.12z" fill="#3F3E45"/>
    <path d="M9.944 91.729a1.404 1.404 0 1 0 0-2.81 1.404 1.404 0 0 0 0 2.81z" fill="#A5A5AD"/>
    <path d="m10.058 89.303.07.823.795.07v.228l-.794.07-.071.837h-.241l-.071-.837-.795-.07v-.228l.795-.07.07-.823h.242z" fill="#3B3C43"/>
</svg>
