<svg width="24" height="25" viewBox="0 0 24 25" fill="none" xmlns="http://www.w3.org/2000/svg">
    <g clip-path="url(#d5j5aox7aa)" fill="#B7B4C7">
        <path d="M23.524 13.021a11.598 11.598 0 0 0-2.795-4.774l.385-.385a.692.692 0 0 0 0-.98l-3.497-3.497a.692.692 0 0 0-.979 0l-.385.386A11.6 11.6 0 0 0 11.479.976 11.596 11.596 0 0 0 5.793.75a.692.692 0 0 0-.017 1.35l.678.162a10.171 10.171 0 0 1 4.843 2.705l1.88 1.88-.21.21a.692.692 0 0 0 0 .978l3.496 3.497c.27.27.71.27.98 0l.21-.21 1.879 1.88a10.17 10.17 0 0 1 2.705 4.843l.161.677a.692.692 0 0 0 .674.533h.008a.692.692 0 0 0 .669-.549 11.596 11.596 0 0 0-.225-5.686zM12.197 9.226.203 21.22a.692.692 0 0 0 0 .98L2.3 24.297a.69.69 0 0 0 .979 0l11.995-11.995-3.078-3.077z"/>
    </g>
    <defs>
        <clipPath id="d5j5aox7aa">
            <path fill="#fff" transform="translate(0 .5)" d="M0 0h24v24H0z"/>
        </clipPath>
    </defs>
</svg>
