<svg width="17" height="16" viewBox="0 0 17 16" fill="none" xmlns="http://www.w3.org/2000/svg">
    <g clip-path="url(#vtfoezwbja)" fill="#FF4980">
        <path d="M16.433 8.347a7.733 7.733 0 0 0-1.864-3.182l.257-.257a.462.462 0 0 0 0-.653l-2.331-2.331a.462.462 0 0 0-.653 0l-.257.257A7.733 7.733 0 0 0 8.402.317a7.73 7.73 0 0 0-3.79-.15.462.462 0 0 0-.011.9l.452.108A6.78 6.78 0 0 1 8.28 2.98l1.253 1.253-.14.14a.462.462 0 0 0 0 .652l2.332 2.332c.18.18.472.18.652 0l.14-.14 1.253 1.253a6.78 6.78 0 0 1 1.804 3.228l.107.452c.05.208.236.355.449.355h.006a.461.461 0 0 0 .445-.366 7.731 7.731 0 0 0-.15-3.79zM8.882 5.816.885 13.813a.462.462 0 0 0 0 .652l1.399 1.4a.46.46 0 0 0 .653 0l7.996-7.997-2.051-2.052z"/>
    </g>
    <defs>
        <clipPath id="vtfoezwbja">
            <path fill="#fff" transform="translate(.75)" d="M0 0h16v16H0z"/>
        </clipPath>
    </defs>
</svg>
