<svg width="64" height="56" viewBox="0 0 64 56" fill="none" xmlns="http://www.w3.org/2000/svg">
    <g filter="url(#jam5erutna)">
        <path fill-rule="evenodd" clip-rule="evenodd" d="M57.551 31.672V17.31a3.91 3.91 0 0 0-1.364-.24H8.713v18.183H54c1.961 0 3.55-1.605 3.55-3.581z" fill="#fff"/>
        <path fill-rule="evenodd" clip-rule="evenodd" d="M28.074 26.239v.023c0 .07 0 .14-.008.21 0 .115-.015.224-.023.34-.008.078-.015.155-.03.233a4.473 4.473 0 0 1-.063.34c-.015.078-.03.156-.054.233-.031.117-.062.233-.1.341-.024.078-.055.155-.086.233a4.487 4.487 0 0 1-.147.34l-.116.233c-.063.117-.124.233-.194.341-.047.078-.101.155-.155.233-.086.116-.17.233-.256.341-.07.078-.132.155-.202.233a4.856 4.856 0 0 1-.348.34c-.086.078-.179.156-.272.233l-.186.14c-.1.07-.201.14-.302.201-.093.054-.186.116-.287.163a.913.913 0 0 1-.124.062 4.62 4.62 0 0 1-.86.341c-.31.093-.636.155-.961.194-.186.015-.372.03-.558.03-.186 0-.38-.007-.558-.03a4.913 4.913 0 0 1-.961-.194 4.624 4.624 0 0 1-.86-.341l-.125-.062c-.1-.054-.194-.109-.287-.163a6.78 6.78 0 0 1-.302-.201l-.186-.14c-.093-.077-.186-.147-.271-.232a4.856 4.856 0 0 1-.806-.915 4.011 4.011 0 0 1-.155-.232c-.07-.109-.132-.225-.194-.342l-.116-.232a4.527 4.527 0 0 1-.148-.341c-.03-.078-.054-.155-.085-.233a5.787 5.787 0 0 1-.1-.34c-.024-.078-.04-.156-.055-.233a4.425 4.425 0 0 1-.062-.341c-.008-.078-.023-.155-.03-.233a2.52 2.52 0 0 1-.024-.34c0-.07-.008-.14-.008-.21v-.023c0-.117.008-.225.016-.341.007-.078.007-.155.023-.233.015-.116.03-.232.046-.34l.047-.233c.023-.117.054-.233.085-.341l.07-.233c.039-.116.085-.233.132-.341.03-.078.07-.155.1-.233.055-.116.117-.232.179-.34l.14-.233a5.41 5.41 0 0 1 .24-.341l.186-.233c.1-.116.201-.232.31-.34a5.413 5.413 0 0 1 .659-.558c.007-.009.015-.009.015-.016.116-.085.232-.155.349-.233.07-.046.147-.085.217-.124.147-.077.302-.155.457-.217.217-.093.442-.17.674-.232.264-.07.543-.124.822-.155.186-.016.372-.031.558-.031.186 0 .38.007.558.03.28.032.558.078.822.156.232.062.457.14.674.232.155.062.31.14.457.217.078.039.147.078.217.124.124.07.24.148.35.233.007.008.015.008.015.015.14.101.279.21.41.326.086.077.17.155.248.232.109.109.217.225.318.341l.186.233c.085.108.163.225.24.34l.14.233a4.71 4.71 0 0 1 .279.574c.047.108.093.225.132.341.023.078.054.155.07.232.03.109.061.225.085.342l.046.232c.023.116.039.225.047.341l.023.233c.023.116.023.224.023.34z" fill="#ABABB5"/>
        <path fill-rule="evenodd" clip-rule="evenodd" d="M24.795 21.332H20.68c.217-.093.442-.17.674-.232h2.767c.233.062.457.14.674.232zM25.82 21.898h-6.17c.116-.085.232-.154.348-.232h5.472c.124.078.24.155.35.232zM26.5 22.472h-7.525c.077-.078.162-.155.248-.233h7.037c.078.078.163.155.24.233zM26.997 23.046H18.47l.186-.233h8.154c.07.077.131.155.186.233zM27.376 23.61H18.1l.14-.231h8.998l.14.232zM27.656 24.185h-9.843c.03-.078.07-.155.1-.233h9.634c.047.078.078.155.109.233zM27.857 24.758H17.61l.07-.233h10.107c.023.078.054.155.07.233zM27.996 25.324H17.48l.046-.232H27.95l.046.232zM28.067 25.898H17.409c.008-.078.008-.155.023-.233h10.611l.024.233zM28.074 26.238v.024c0 .07 0 .139-.008.209H17.401c0-.07-.007-.14-.007-.21v-.023h10.68zM28.043 26.813a2.373 2.373 0 0 1-.03.232H17.455c-.008-.078-.023-.155-.031-.233h10.618zM27.958 27.378a2.544 2.544 0 0 1-.054.232H17.572c-.023-.077-.039-.155-.054-.232h10.44zM27.803 27.951c-.023.078-.054.155-.085.233H17.75c-.03-.078-.054-.155-.085-.233h10.138zM27.57 28.525l-.116.233h-9.44l-.116-.233h9.672zM27.26 29.09c-.047.078-.1.156-.155.233h-8.743c-.054-.077-.108-.155-.155-.232h9.053zM26.85 29.664c-.07.078-.132.155-.202.233h-7.82a5.353 5.353 0 0 1-.202-.233h8.224zM26.299 30.238c-.085.078-.178.155-.271.233h-6.58c-.094-.078-.187-.148-.272-.233h7.123zM25.54 30.804c-.094.054-.187.116-.287.163a.937.937 0 0 1-.124.062h-4.775l-.124-.063a9.528 9.528 0 0 1-.287-.162h5.596zM23.3 31.57c.333-.03.65-.1.96-.193h-3.045c.31.093.635.155.96.194H23.3z" fill="#F0F0F3"/>
        <path fill-rule="evenodd" clip-rule="evenodd" d="M23.555 20.945v10.619h-1.643V20.945c.271-.015.543-.03.822-.03.279 0 .55.015.821.03z" fill="#F0F0F3"/>
        <path fill-rule="evenodd" clip-rule="evenodd" d="M19.634 21.914v8.728l.302.2c.093.055.186.117.287.164v-9.487c-.078.038-.147.085-.217.124-.124.07-.24.147-.349.232l-.023.039zM25.819 21.898l-.349-.232c-.07-.047-.147-.085-.217-.124V31.006c.1-.055.194-.109.287-.163.1-.062.201-.132.302-.202V21.891l-.023.008zM41.375 26.239v.023c0 .07 0 .14-.008.21 0 .115-.015.224-.023.34-.008.078-.015.155-.03.233a4.473 4.473 0 0 1-.063.34c-.015.078-.03.156-.054.233-.031.117-.062.233-.101.341-.023.078-.054.155-.085.233a4.487 4.487 0 0 1-.148.34l-.116.233a4.866 4.866 0 0 1-.194.341c-.046.078-.1.155-.154.233-.086.116-.171.233-.256.341-.07.078-.132.155-.202.233a4.856 4.856 0 0 1-.349.34c-.085.078-.178.156-.27.233l-.187.14c-.1.07-.201.14-.302.201-.093.054-.186.116-.287.163a.913.913 0 0 1-.124.062c-.271.14-.558.256-.86.341-.31.093-.636.155-.961.194a6.732 6.732 0 0 1-.559.03c-.186 0-.38-.007-.558-.03a4.913 4.913 0 0 1-.96-.194 4.624 4.624 0 0 1-.861-.341l-.124-.062c-.1-.054-.194-.109-.287-.163-.1-.062-.201-.132-.302-.201l-.186-.14c-.093-.077-.186-.147-.271-.232a4.855 4.855 0 0 1-.35-.341c-.069-.078-.139-.155-.2-.233a3.548 3.548 0 0 1-.256-.341 4.865 4.865 0 0 1-.349-.574l-.117-.232c-.054-.109-.1-.225-.147-.341-.03-.078-.054-.155-.085-.233a5.639 5.639 0 0 1-.1-.34c-.024-.078-.04-.156-.055-.233a4.425 4.425 0 0 1-.062-.341c-.008-.078-.023-.155-.031-.233a2.52 2.52 0 0 1-.023-.34c0-.07-.008-.14-.008-.21v-.023c0-.117.008-.225.015-.341.008-.078.008-.155.024-.233.015-.116.03-.232.046-.34l.047-.233c.023-.117.054-.233.085-.341l.07-.233a4.46 4.46 0 0 1 .131-.341c.032-.078.07-.155.101-.233a4.71 4.71 0 0 1 .178-.34l.14-.233c.078-.116.155-.233.24-.341l.186-.233c.101-.116.202-.232.31-.34a5.413 5.413 0 0 1 .659-.558c.008-.009.016-.009.016-.016.116-.085.232-.155.349-.233.07-.046.147-.085.216-.124.148-.077.303-.155.458-.217.217-.093.442-.17.674-.232.264-.07.543-.124.822-.155a6.73 6.73 0 0 1 .558-.031c.186 0 .38.007.558.03.279.032.558.078.821.156.233.062.458.14.675.232a4.926 4.926 0 0 1 .674.341c.124.07.24.148.349.233.008.008.015.008.015.015.14.101.28.21.411.326.085.077.17.155.248.232.109.109.217.225.318.341l.186.233c.085.108.163.225.24.34l.14.233a4.672 4.672 0 0 1 .279.574c.046.108.093.225.132.341.023.078.054.155.07.232.03.109.061.225.085.342l.046.232c.023.116.039.225.047.341l.023.233c.023.116.023.224.023.34z" fill="#ABABB5"/>
        <path fill-rule="evenodd" clip-rule="evenodd" d="M38.096 21.332h-4.115c.216-.093.441-.17.674-.232h2.767c.232.062.457.14.674.232zM39.12 21.898h-6.17c.116-.085.233-.154.349-.232h5.471c.124.078.24.155.35.232zM39.801 22.472h-7.526c.078-.078.163-.155.248-.233h7.038c.078.078.163.155.24.233zM40.297 23.046h-8.525c.062-.078.123-.156.186-.233h8.153c.07.077.132.155.186.233zM40.677 23.61H31.4l.14-.231h8.999l.14.232zM40.956 24.185h-9.844c.031-.078.07-.155.101-.233h9.642c.039.078.07.155.1.233zM41.158 24.758H30.91l.07-.233h10.107c.023.078.054.155.07.233zM41.297 25.324H30.78l.047-.232H41.25l.046.232zM41.367 25.898H30.71c.008-.078.008-.155.023-.233h10.611l.023.233zM41.375 26.238v.024c0 .07 0 .139-.008.209H30.702c0-.07-.008-.14-.008-.21v-.023h10.681zM41.344 26.813c-.008.077-.015.155-.03.232H30.756c-.008-.078-.024-.155-.031-.233h10.618zM41.259 27.378a2.512 2.512 0 0 1-.055.232H30.873c-.024-.077-.04-.155-.055-.232h10.44zM41.104 27.951a2.83 2.83 0 0 1-.085.233H31.05c-.03-.078-.054-.155-.085-.233h10.138zM40.871 28.525l-.116.233h-9.44l-.117-.233h9.673zM40.56 29.09c-.046.078-.1.156-.154.233h-8.743c-.054-.077-.109-.155-.155-.232h9.053zM40.15 29.664c-.07.078-.131.155-.201.233h-7.82a5.353 5.353 0 0 1-.202-.233h8.223zM39.6 30.238a8.492 8.492 0 0 1-.272.233h-6.58c-.093-.078-.186-.148-.271-.233H39.6zM38.84 30.804c-.093.054-.186.116-.286.163a.931.931 0 0 1-.124.062h-4.782l-.124-.063a9.414 9.414 0 0 1-.287-.162h5.603zM36.6 31.57c.334-.03.652-.1.962-.193h-3.046c.31.093.635.155.96.194h1.125z" fill="#F0F0F3"/>
        <path fill-rule="evenodd" clip-rule="evenodd" d="M36.856 20.945v10.619h-1.643V20.945c.271-.015.542-.03.822-.03.279 0 .55.015.821.03z" fill="#F0F0F3"/>
        <path fill-rule="evenodd" clip-rule="evenodd" d="M32.935 21.914v8.728l.302.2c.093.055.185.117.286.164v-9.487c-.077.038-.147.085-.217.124a2.72 2.72 0 0 0-.348.232l-.023.039zM39.12 21.898l-.35-.232c-.069-.047-.147-.085-.216-.124V31.006c.1-.055.194-.109.286-.163.101-.062.202-.132.303-.202V21.891l-.023.008zM54.675 26.239v.023c0 .07 0 .14-.008.21 0 .115-.015.224-.023.34-.008.078-.016.155-.031.233a4.473 4.473 0 0 1-.062.34 4.396 4.396 0 0 1-.155.574c-.023.078-.054.155-.085.233a4.487 4.487 0 0 1-.148.34l-.116.233a4.826 4.826 0 0 1-.194.341c-.046.078-.1.155-.155.233-.085.116-.17.233-.255.341-.07.078-.132.155-.202.233a4.856 4.856 0 0 1-.349.34 8.492 8.492 0 0 1-.271.233l-.186.14c-.1.07-.202.14-.302.201-.093.054-.186.116-.287.163a.913.913 0 0 1-.124.062c-.272.14-.558.256-.86.341-.31.093-.636.155-.962.194a6.732 6.732 0 0 1-.558.03c-.186 0-.38-.007-.558-.03a4.913 4.913 0 0 1-.96-.194 4.624 4.624 0 0 1-.861-.341l-.124-.062c-.1-.054-.194-.109-.287-.163a6.84 6.84 0 0 1-.302-.201l-.186-.14c-.093-.077-.186-.147-.272-.232a4.836 4.836 0 0 1-.348-.341c-.07-.078-.14-.155-.202-.233a3.548 3.548 0 0 1-.256-.341 4.865 4.865 0 0 1-.349-.574l-.116-.232a4.527 4.527 0 0 1-.147-.341c-.03-.078-.054-.155-.085-.233a5.639 5.639 0 0 1-.217-.914c-.008-.078-.024-.155-.031-.233a2.52 2.52 0 0 1-.023-.34c0-.07-.008-.14-.008-.21v-.023c0-.117.008-.225.015-.341.008-.078.008-.155.023-.233l.047-.34.047-.233c.023-.117.054-.233.085-.341l.07-.233a4.46 4.46 0 0 1 .131-.341c.031-.078.07-.155.101-.233a4.71 4.71 0 0 1 .178-.34l.14-.233a5.41 5.41 0 0 1 .24-.341l.186-.233c.1-.116.202-.232.31-.34a5.413 5.413 0 0 1 .659-.558c.008-.009.015-.009.015-.016.117-.085.233-.155.35-.233.069-.046.147-.085.216-.124.148-.077.303-.155.458-.217.217-.093.441-.17.674-.232.264-.07.543-.124.822-.155.185-.016.372-.031.558-.031.186 0 .38.007.558.03.279.032.558.078.821.156.233.062.458.14.675.232.155.062.31.14.457.217.077.039.147.078.217.124.124.07.24.148.349.233.007.008.015.008.015.015a5.374 5.374 0 0 1 .977.9l.186.232c.085.108.162.225.24.34l.14.233c.062.109.124.225.178.341.039.078.07.155.1.233.047.108.094.225.132.341.024.078.055.155.07.232.031.109.062.225.085.342l.047.232c.023.116.039.225.046.341l.024.233c.023.116.023.224.023.34z" fill="#ABABB5"/>
        <path fill-rule="evenodd" clip-rule="evenodd" d="M51.396 21.332H47.28c.217-.093.442-.17.675-.232h2.767c.232.062.457.14.674.232zM52.42 21.898h-6.17c.116-.085.233-.154.349-.232h5.472c.124.078.24.155.349.232zM53.101 22.472h-7.526c.078-.078.163-.155.248-.233h7.038c.078.078.163.155.24.233zM53.597 23.046h-8.526l.186-.233h8.154c.07.077.132.155.186.233zM53.977 23.61h-9.278l.14-.231h8.998l.14.232zM54.257 24.185h-9.844c.031-.078.07-.155.1-.233h9.635c.047.078.078.155.109.233zM54.458 24.758H44.21l.07-.233h10.107c.023.078.054.155.07.233zM54.597 25.324H44.079l.047-.232H54.55l.047.232zM54.667 25.898H44.01c.008-.078.008-.155.023-.233h10.61l.024.233zM54.675 26.238v.024c0 .07 0 .139-.008.209H44.002c0-.07-.008-.14-.008-.21v-.023h10.68zM54.644 26.813a2.373 2.373 0 0 1-.031.232H44.056c-.007-.078-.023-.155-.03-.233h10.618zM54.559 27.378c-.016.077-.031.155-.055.232H44.172a2.544 2.544 0 0 1-.054-.232h10.44zM54.404 27.951a2.83 2.83 0 0 1-.086.233h-9.967c-.031-.078-.054-.155-.085-.233h10.138zM54.171 28.525l-.116.233h-9.44l-.117-.233h9.673zM53.86 29.09c-.046.078-.1.156-.154.233h-8.743c-.055-.077-.109-.155-.155-.232h9.053zM53.45 29.664c-.07.078-.132.155-.201.233h-7.82a5.353 5.353 0 0 1-.202-.233h8.223zM52.9 30.238c-.085.078-.178.155-.27.233h-6.581c-.093-.078-.186-.148-.272-.233H52.9zM52.14 30.804c-.093.054-.186.116-.287.163a.932.932 0 0 1-.124.062h-4.774l-.124-.063a9.661 9.661 0 0 1-.287-.162h5.596zM49.9 31.57c.334-.03.651-.1.962-.193H47.815c.31.093.636.155.962.194H49.9z" fill="#F0F0F3"/>
        <path fill-rule="evenodd" clip-rule="evenodd" d="M50.156 20.945v10.619h-1.643V20.945c.271-.015.542-.03.821-.03.28 0 .55.015.822.03z" fill="#F0F0F3"/>
        <path fill-rule="evenodd" clip-rule="evenodd" d="M46.234 21.914v8.728l.303.2c.093.055.186.117.286.164v-9.487c-.077.038-.147.085-.217.124-.124.07-.24.147-.348.232l-.024.039zM52.42 21.898l-.35-.232c-.07-.047-.147-.085-.217-.124V31.006c.101-.055.194-.109.287-.163.101-.062.202-.132.303-.202V21.891l-.024.008z" fill="#ABABB5"/>
        <path fill-rule="evenodd" clip-rule="evenodd" d="M57.365 17.294v14.215a3.536 3.536 0 0 1-3.542 3.542H8.713v2.628h47.296A3.996 3.996 0 0 0 60 33.687V21.045a4.005 4.005 0 0 0-2.635-3.751z" fill="#B7B4C7"/>
        <path fill-rule="evenodd" clip-rule="evenodd" d="M44.63 27.293a3.108 3.108 0 0 1 2.2-.907c.35 0 .675.054 1 .163a4.11 4.11 0 0 0-.852.659 4.23 4.23 0 0 0-1.163 2.17 4.634 4.634 0 0 1-1.186-2.085zm9.238-2.457a3.108 3.108 0 0 1-2.2.907c-.35 0-.675-.055-1-.163a4.11 4.11 0 0 0 .852-.659 4.23 4.23 0 0 0 1.162-2.17 4.87 4.87 0 0 1 1.186 2.085zm-3.139-.713c-.24.24-.519.442-.821.597.093-.35.131-.706.131-1.078 0-.845-.255-1.666-.713-2.356a4.754 4.754 0 0 1 2.31.643 3.071 3.071 0 0 1-.907 2.194zm-2.712-2.682c.58.59.906 1.364.906 2.201 0 .349-.054.675-.162 1a4.112 4.112 0 0 0-.66-.852 4.229 4.229 0 0 0-2.17-1.163 4.707 4.707 0 0 1 2.086-1.186zm-2.9 2.225a3.158 3.158 0 0 1 2.791 1.736 4.145 4.145 0 0 0-1.077-.132c-.845 0-1.667.256-2.357.713a4.6 4.6 0 0 1 .644-2.317zm2.644 4.332c.24-.24.519-.442.821-.597a4.145 4.145 0 0 0-.131 1.078c0 .845.255 1.666.713 2.356a4.754 4.754 0 0 1-2.31-.643c0-.814.318-1.605.907-2.194zm2.712 2.682a3.108 3.108 0 0 1-.906-2.201c0-.35.054-.675.162-1 .179.31.404.597.66.852a4.2 4.2 0 0 0 2.17 1.163 4.717 4.717 0 0 1-2.085 1.186zm2.907-2.217a3.158 3.158 0 0 1-2.79-1.736 4.14 4.14 0 0 0 1.077.132c.845 0 1.667-.256 2.356-.713a4.784 4.784 0 0 1-.643 2.317zm-4.131-8.3a5.91 5.91 0 0 0-5.906 5.905 5.914 5.914 0 0 0 5.906 5.906 5.91 5.91 0 0 0 5.906-5.906c-.008-3.255-2.659-5.906-5.906-5.906z" fill="#3E3F46"/>
        <path fill-rule="evenodd" clip-rule="evenodd" d="M49.25 24.464c.883 0 1.596.713 1.596 1.597 0 .883-.713 1.596-1.597 1.596a1.594 1.594 0 0 1-1.597-1.596 1.59 1.59 0 0 1 1.597-1.597z" fill="#F0F0F3"/>
        <path fill-rule="evenodd" clip-rule="evenodd" d="M49.916 24.61a1.6 1.6 0 0 1-1.45 2.263c-.24 0-.465-.054-.666-.147a1.6 1.6 0 0 0 3.054-.666 1.607 1.607 0 0 0-.938-1.45z" fill="#ABABB5"/>
        <path fill-rule="evenodd" clip-rule="evenodd" d="M31.415 27.37a3.108 3.108 0 0 1 2.2-.907c.35 0 .675.054 1 .163-.31.178-.596.403-.852.659a4.23 4.23 0 0 0-1.163 2.17 4.706 4.706 0 0 1-1.185-2.085zm9.239-2.457a3.108 3.108 0 0 1-2.202.907c-.349 0-.674-.055-1-.163.31-.178.597-.403.853-.659a4.23 4.23 0 0 0 1.163-2.17 4.633 4.633 0 0 1 1.185 2.085zm-3.14-.713c-.24.24-.519.442-.821.597.093-.35.132-.706.132-1.078 0-.845-.256-1.666-.713-2.356a4.754 4.754 0 0 1 2.31.643 3.053 3.053 0 0 1-.907 2.194zm-2.712-2.682c.581.59.907 1.364.907 2.201 0 .35-.055.675-.163 1a4.106 4.106 0 0 0-.66-.852 4.229 4.229 0 0 0-2.17-1.163 4.715 4.715 0 0 1 2.086-1.186zm-2.9 2.225a3.157 3.157 0 0 1 2.791 1.736 4.146 4.146 0 0 0-1.077-.132c-.845 0-1.667.256-2.357.713a4.76 4.76 0 0 1 .644-2.317zm2.644 4.332c.24-.24.52-.441.822-.596a4.145 4.145 0 0 0-.132 1.077c0 .845.256 1.666.713 2.356a4.755 4.755 0 0 1-2.31-.643c0-.822.326-1.605.907-2.194zm2.713 2.682a3.108 3.108 0 0 1-.907-2.201c0-.349.054-.675.163-1 .178.31.403.597.658.853a4.2 4.2 0 0 0 2.17 1.162 4.706 4.706 0 0 1-2.084 1.186zm2.906-2.217a3.158 3.158 0 0 1-2.79-1.736c.349.093.705.132 1.077.132.845 0 1.667-.256 2.357-.713a4.62 4.62 0 0 1-.644 2.317zm-4.131-8.309a5.91 5.91 0 0 0-5.906 5.907 5.915 5.915 0 0 0 5.906 5.906 5.91 5.91 0 0 0 5.906-5.906 5.915 5.915 0 0 0-5.906-5.907z" fill="#3E3F46"/>
        <path fill-rule="evenodd" clip-rule="evenodd" d="M36.034 24.541c.884 0 1.597.713 1.597 1.597 0 .883-.713 1.596-1.597 1.596a1.594 1.594 0 0 1-1.596-1.596c0-.884.713-1.597 1.596-1.597z" fill="#F0F0F3"/>
        <path fill-rule="evenodd" clip-rule="evenodd" d="M36.7 24.689c.102.201.148.426.148.666a1.6 1.6 0 0 1-1.596 1.597c-.24 0-.466-.055-.667-.148a1.6 1.6 0 0 0 3.054-.667c0-.642-.388-1.2-.938-1.448z" fill="#ABABB5"/>
        <path fill-rule="evenodd" clip-rule="evenodd" d="M18.207 27.455a3.108 3.108 0 0 1 2.202-.907c.349 0 .674.054 1 .163-.31.178-.597.403-.853.659a4.23 4.23 0 0 0-1.163 2.17 4.634 4.634 0 0 1-1.186-2.085zm9.24-2.45a3.108 3.108 0 0 1-2.202.908c-.349 0-.674-.055-1-.163.31-.178.597-.403.853-.659.605-.605 1-1.356 1.163-2.17a4.707 4.707 0 0 1 1.186 2.085zm-3.14-.712c-.24.24-.519.441-.821.596.093-.348.132-.705.132-1.077 0-.845-.256-1.666-.713-2.356a4.755 4.755 0 0 1 2.31.643 3.098 3.098 0 0 1-.908 2.194zm-2.712-2.682c.58.589.907 1.364.907 2.201 0 .349-.055.674-.163 1a4.111 4.111 0 0 0-.66-.853 4.23 4.23 0 0 0-2.17-1.162 4.633 4.633 0 0 1 2.086-1.186zm-2.9 2.217a3.158 3.158 0 0 1 2.791 1.736 4.145 4.145 0 0 0-1.077-.132c-.845 0-1.667.256-2.357.713a4.784 4.784 0 0 1 .644-2.317zm2.644 4.34c.24-.24.52-.442.821-.597a4.146 4.146 0 0 0-.131 1.078c0 .844.256 1.666.713 2.356a4.755 4.755 0 0 1-2.31-.643c0-.822.318-1.613.907-2.194zm2.713 2.674a3.108 3.108 0 0 1-.907-2.201c0-.349.054-.674.163-1 .178.31.403.597.658.853a4.2 4.2 0 0 0 2.17 1.162 4.675 4.675 0 0 1-2.084 1.186zm2.906-2.209a3.158 3.158 0 0 1-2.79-1.736c.349.093.705.132 1.077.132.845 0 1.667-.256 2.357-.713a4.808 4.808 0 0 1-.644 2.317zm-4.131-8.309a5.91 5.91 0 0 0-5.906 5.906 5.915 5.915 0 0 0 5.906 5.906 5.91 5.91 0 0 0 5.906-5.906c-.008-3.255-2.658-5.906-5.906-5.906z" fill="#3E3F46"/>
        <path fill-rule="evenodd" clip-rule="evenodd" d="M22.827 24.626c.884 0 1.597.713 1.597 1.597 0 .883-.713 1.596-1.597 1.596a1.594 1.594 0 0 1-1.597-1.596 1.594 1.594 0 0 1 1.597-1.597z" fill="#F0F0F3"/>
        <path fill-rule="evenodd" clip-rule="evenodd" d="M23.493 24.781a1.6 1.6 0 0 1-1.45 2.263c-.24 0-.465-.054-.666-.147a1.6 1.6 0 0 0 3.054-.667 1.6 1.6 0 0 0-.938-1.449z" fill="#ABABB5"/>
        <path d="M17.51 39.12v-2.38h28.817v.992h-1.333l.256.644h-1.914v-.124a.419.419 0 0 0-.42-.427.41.41 0 0 0-.41.419v.868H23.997v-.868a.31.31 0 0 0-.31-.31.31.31 0 0 0-.31.31v.868h-2.775v-1.38h-1.03v1.38H17.51v.008z" fill="#3F3E45"/>
        <path d="M43.336 38.39v1.125h2.62a.638.638 0 0 0 .635-.636v-.573l-3.255.085z" fill="#FBA615"/>
        <path d="M42.506 39.12H23.997v1.116h18.509V39.12zM23.37 39.12h-2.775v1.039h2.774V39.12z" fill="#F2994A"/>
        <path d="M7.751 18.83v22.097h3.077v-2.504H9.627c-.489 0-.892-.387-.892-.86V18.829h-.984z" fill="#3F3E45"/>
        <path fill-rule="evenodd" clip-rule="evenodd" d="M6.712 31.23H5.317a.625.625 0 0 1-.628-.628v-7.138c0-.357.287-.628.628-.628h1.395v8.394z" fill="#6E6E78"/>
        <path fill-rule="evenodd" clip-rule="evenodd" d="M5.62 27.339v-4.875h-.667a.62.62 0 0 0-.62.635v5.565c.705.008 1.287-.589 1.287-1.325z" fill="#ABABB5"/>
        <path fill-rule="evenodd" clip-rule="evenodd" d="M7.751 14.612s0-.007 0 0a.59.59 0 0 0-.263-.504.577.577 0 0 0-.341-.108H4.605a.612.612 0 0 0-.605.612.6.6 0 0 0 .597.613h1.96v25.74a.59.59 0 0 0 .59.597h.023a.586.586 0 0 0 .59-.597L7.75 14.612zM10.278 22.68c0-.333.272-.604.605-.604h3.643a.605.605 0 0 1 0 1.21h-3.643a.605.605 0 0 1-.605-.605zM10.278 25.084c0-.333.272-.604.605-.604h3.643a.605.605 0 0 1 0 1.209h-3.643a.616.616 0 0 1-.605-.605zM10.278 27.479c0-.334.272-.605.605-.605h3.643a.605.605 0 0 1 0 1.21h-3.643a.616.616 0 0 1-.605-.605zM10.278 29.873c0-.333.272-.604.605-.604h3.643a.605.605 0 0 1 0 1.209h-3.643a.616.616 0 0 1-.605-.605z" fill="#ABABB5"/>
        <path d="M9.294 40.407a.767.767 0 1 0 0-1.535.767.767 0 0 0 0 1.535z" fill="#A5A5AD"/>
        <path d="m9.356 39.089.038.45.434.038v.124l-.434.039-.038.457h-.132l-.039-.457-.434-.039v-.124l.434-.039.039-.45h.132z" fill="#3B3C43"/>
    </g>
    <defs>
        <filter id="jam5erutna" x="0" y="0" width="64" height="64" filterUnits="userSpaceOnUse" color-interpolation-filters="sRGB">
            <feFlood flood-opacity="0" result="BackgroundImageFix"/>
            <feColorMatrix in="SourceAlpha" values="0 0 0 0 0 0 0 0 0 0 0 0 0 0 0 0 0 0 127 0" result="hardAlpha"/>
            <feOffset dy="4"/>
            <feGaussianBlur stdDeviation="2"/>
            <feComposite in2="hardAlpha" operator="out"/>
            <feColorMatrix values="0 0 0 0 0 0 0 0 0 0 0 0 0 0 0 0 0 0 0.25 0"/>
            <feBlend in2="BackgroundImageFix" result="effect1_dropShadow_57_11152"/>
            <feBlend in="SourceGraphic" in2="effect1_dropShadow_57_11152" result="shape"/>
        </filter>
    </defs>
</svg>
