<svg width="64" height="56" viewBox="0 0 64 56" fill="none" xmlns="http://www.w3.org/2000/svg">
    <g clip-path="url(#im81feglsa)" filter="url(#p2k4m9g3db)">
        <path fill-rule="evenodd" clip-rule="evenodd" d="M55.698 15.28v18.35a4.565 4.565 0 0 1-4.572 4.572H9.854v3.391h44.083a5.158 5.158 0 0 0 5.153-5.152V20.12a5.16 5.16 0 0 0-3.392-4.842z" fill="#B7B4C7"/>
        <path fill-rule="evenodd" clip-rule="evenodd" d="M55.938 33.839v-18.55c-.55-.2-1.14-.31-1.761-.31H9.953V38.46h41.382c2.542 0 4.603-2.081 4.603-4.622z" fill="#fff"/>
        <path fill-rule="evenodd" clip-rule="evenodd" d="M12.234 22.043c0-.43.35-.78.78-.78h4.703a.781.781 0 0 1 0 1.56h-4.702c-.43 0-.78-.35-.78-.78zM12.234 25.135c0-.43.35-.78.78-.78h4.703a.781.781 0 0 1 0 1.56h-4.702c-.43 0-.78-.35-.78-.78zM12.234 28.226c0-.43.35-.78.78-.78h4.703a.781.781 0 0 1 0 1.56h-4.702c-.43 0-.78-.35-.78-.78zM12.234 31.319c0-.43.35-.78.78-.78h4.703a.781.781 0 0 1 0 1.56h-4.702c-.43 0-.78-.35-.78-.78zM45.212 19.691a6.894 6.894 0 0 1 6.894 6.894 6.888 6.888 0 0 1-6.894 6.894 6.894 6.894 0 0 1 0-13.788zM35.057 26.655v.03c0 .09 0 .18-.01.27 0 .15-.02.29-.03.44-.01.1-.02.2-.04.3-.02.15-.05.3-.08.44-.02.1-.04.2-.07.3-.04.15-.08.3-.13.44-.03.1-.07.201-.11.301-.06.15-.12.3-.19.44l-.15.3c-.08.15-.16.3-.25.44-.06.1-.13.2-.2.3-.11.15-.22.301-.33.441-.09.1-.17.2-.26.3-.14.15-.29.3-.45.44-.11.1-.231.2-.351.3l-.24.18c-.13.09-.26.18-.39.26-.12.07-.24.15-.37.21-.05.03-.11.061-.16.081-.35.18-.721.33-1.111.44-.4.12-.82.2-1.24.25-.241.02-.481.04-.721.04s-.49-.01-.72-.04c-.43-.04-.841-.13-1.241-.25-.39-.11-.76-.26-1.11-.44l-.161-.08c-.13-.07-.25-.14-.37-.21-.13-.08-.26-.17-.39-.26l-.24-.18c-.12-.1-.24-.19-.35-.3-.16-.14-.31-.29-.451-.44-.09-.1-.18-.2-.26-.301a4.58 4.58 0 0 1-.33-.44c-.07-.1-.14-.2-.2-.3-.09-.14-.17-.29-.25-.44l-.15-.3c-.07-.14-.13-.29-.19-.441-.04-.1-.07-.2-.11-.3a7.302 7.302 0 0 1-.2-.74c-.03-.14-.06-.29-.08-.44-.01-.1-.03-.2-.04-.3-.021-.151-.031-.291-.031-.441 0-.09-.01-.18-.01-.27v-.03c0-.15.01-.29.02-.44.01-.1.01-.2.03-.3l.06-.441.06-.3c.03-.15.07-.3.11-.44l.09-.3c.05-.15.11-.3.17-.44.04-.1.09-.2.13-.3.07-.151.15-.301.23-.441l.18-.3c.1-.15.2-.3.31-.44l.24-.3c.131-.15.261-.3.401-.44a6.951 6.951 0 0 1 .85-.72c.01-.011.02-.011.02-.021.15-.11.3-.2.45-.3.09-.06.19-.11.281-.16.19-.1.39-.2.59-.28.28-.12.57-.22.87-.3.34-.09.701-.161 1.061-.201.24-.02.48-.04.72-.04s.491.01.721.04c.36.04.72.1 1.06.2.3.08.591.18.871.3.2.08.4.18.59.28.1.05.19.1.28.16.16.09.31.19.45.3.01.01.02.01.02.02a6.951 6.951 0 0 1 1.261 1.161l.24.3c.11.14.21.29.31.44l.18.3a6.099 6.099 0 0 1 .361.741c.06.14.12.29.17.44.03.1.07.2.09.3.04.14.08.29.11.44l.06.301c.03.15.05.29.06.44l.03.3c.02.14.03.29.03.44z" fill="#ABABB5"/>
        <path fill-rule="evenodd" clip-rule="evenodd" d="M30.825 20.322h-5.313c.28-.12.57-.22.87-.3h3.572c.29.08.58.18.87.3zM32.146 21.052h-7.964c.15-.11.3-.2.45-.3h7.064l.45.3zM33.026 21.792H23.31c.1-.1.21-.2.32-.3h9.086c.1.1.2.2.31.3zM33.666 22.533H22.66l.24-.3h10.526c.08.09.16.19.24.3zM34.146 23.263H22.17l.18-.3h11.616c.07.1.13.2.18.3zM34.516 24.003H21.81c.04-.1.09-.2.13-.3h12.436c.05.1.1.2.14.3zM34.777 24.734H21.55l.09-.3h13.047c.03.11.06.2.09.3zM34.946 25.474H21.37l.06-.3h13.457c.03.1.05.2.06.3zM35.037 26.214H21.29c.01-.1.01-.2.03-.3h13.697c.01.1.02.2.02.3zM35.057 26.654v.03c0 .09 0 .18-.01.27H21.28c0-.09-.01-.18-.01-.27v-.03h13.787zM35.017 27.385c-.01.1-.02.2-.04.3H21.34c-.01-.1-.03-.2-.04-.3h13.717zM34.897 28.125c-.02.1-.04.2-.07.3H21.49c-.03-.1-.05-.2-.07-.3h13.477zM34.697 28.866c-.03.1-.07.2-.11.3H21.73c-.04-.1-.07-.2-.11-.3h13.077zM34.407 29.596l-.15.3H22.07l-.15-.3h12.487zM34.007 30.337c-.06.1-.13.2-.2.3H22.52c-.07-.1-.14-.2-.2-.3h11.687zM33.476 31.077c-.09.1-.17.2-.26.3H23.111c-.09-.1-.18-.2-.26-.3h10.625zM32.766 31.808c-.11.1-.23.2-.35.3h-8.494c-.12-.1-.24-.19-.35-.3h9.194zM31.775 32.548c-.12.07-.24.15-.37.21-.05.03-.11.06-.16.08H25.08l-.16-.08c-.13-.07-.25-.14-.37-.21h7.224zM28.884 33.538c.43-.04.84-.13 1.24-.25h-3.931c.4.12.82.2 1.24.25h1.45z" fill="#F0F0F3"/>
        <path fill-rule="evenodd" clip-rule="evenodd" d="M29.224 19.821V33.53h-2.122V19.82c.35-.02.7-.04 1.061-.04.36 0 .71.02 1.06.04z" fill="#F0F0F3"/>
        <path fill-rule="evenodd" clip-rule="evenodd" d="M24.151 21.072V32.338l.39.26c.12.07.24.15.37.21V20.592c-.1.05-.19.1-.28.16-.16.09-.31.19-.45.3l-.03.02zM32.145 21.052c-.15-.11-.3-.2-.45-.3-.09-.06-.19-.11-.28-.16V32.808c.13-.07.25-.14.37-.21.13-.08.26-.17.39-.26V21.032l-.03.02zM52.166 26.555v.03c0 .09 0 .18-.01.27 0 .15-.02.29-.03.44-.01.1-.02.2-.04.3-.02.15-.05.3-.08.44-.02.1-.04.2-.07.301-.04.15-.08.3-.13.44-.03.1-.07.2-.11.3-.06.15-.12.3-.19.44l-.15.3c-.08.15-.16.301-.25.441-.06.1-.13.2-.2.3-.111.15-.221.3-.331.44-.09.1-.17.2-.26.3-.14.15-.29.3-.45.44-.11.1-.23.2-.35.301l-.24.18c-.13.09-.26.18-.391.26-.12.07-.24.15-.37.21-.05.03-.11.06-.16.08-.35.18-.72.33-1.11.44-.401.12-.821.2-1.242.25-.24.02-.48.04-.72.04s-.49-.01-.72-.04c-.43-.04-.84-.13-1.24-.25-.391-.11-.761-.26-1.111-.44l-.16-.08c-.13-.07-.25-.14-.37-.21-.13-.08-.261-.17-.391-.26l-.24-.18c-.12-.1-.24-.19-.35-.3-.16-.14-.31-.29-.45-.44-.09-.1-.18-.2-.26-.3a4.58 4.58 0 0 1-.33-.44c-.07-.1-.141-.2-.201-.301-.09-.14-.17-.29-.25-.44l-.15-.3c-.07-.14-.13-.29-.19-.44-.04-.1-.07-.2-.11-.3a7.302 7.302 0 0 1-.2-.741c-.03-.14-.06-.29-.08-.44-.01-.1-.03-.2-.04-.3-.02-.15-.03-.29-.03-.44 0-.09-.01-.18-.01-.27v-.03c0-.151.01-.291.02-.441.01-.1.01-.2.03-.3l.06-.44.06-.3c.03-.15.07-.3.11-.441l.09-.3c.05-.15.11-.3.17-.44.04-.1.09-.2.13-.3.07-.15.15-.3.23-.44l.18-.3c.1-.151.2-.301.31-.441l.24-.3c.13-.15.26-.3.4-.44a6.951 6.951 0 0 1 .85-.72c.011-.01.021-.01.021-.021.15-.11.3-.2.45-.3.09-.06.19-.11.28-.16.19-.1.39-.2.59-.28.28-.12.571-.22.871-.3.34-.09.7-.16 1.06-.2.24-.02.481-.04.721-.04s.49.01.72.04c.36.04.72.1 1.061.2.3.08.59.18.87.3.2.08.4.18.59.28.1.05.19.1.281.16.16.09.31.19.45.3.01.01.02.01.02.02a6.951 6.951 0 0 1 1.26 1.16l.241.3c.11.14.21.291.31.441l.18.3a6.099 6.099 0 0 1 .36.74c.06.14.12.29.17.44.03.1.07.201.09.301.04.14.08.29.11.44l.06.3c.03.15.05.29.06.44l.03.3c.02.14.03.291.03.441z" fill="#ABABB5"/>
        <path fill-rule="evenodd" clip-rule="evenodd" d="M47.933 20.222H42.62c.28-.12.57-.22.87-.3h3.572c.29.08.58.18.87.3zM49.254 20.953H41.29c.15-.11.3-.2.45-.3h7.064l.45.3zM50.134 21.693H40.42c.1-.1.21-.2.32-.3h9.085c.1.1.2.2.31.3zM50.774 22.433H39.77l.24-.3h10.525c.08.09.16.19.24.3zM51.255 23.163H39.278l.18-.3h11.617c.07.1.13.2.18.3zM51.625 23.904H38.918c.04-.1.09-.2.13-.3h12.437c.05.1.1.2.14.3zM51.885 24.634H38.658l.09-.3h13.047c.03.11.06.2.09.3zM52.055 25.374H38.477l.06-.3h13.458c.03.1.05.2.06.3zM52.146 26.115H38.398c.01-.1.01-.2.03-.3h13.698c.01.1.02.2.02.3zM52.165 26.555v.03c0 .09 0 .18-.01.27H38.388c0-.09-.01-.18-.01-.27v-.03h13.787zM52.126 27.285c-.01.1-.02.2-.04.3H38.448c-.01-.1-.03-.2-.04-.3h13.718zM52.005 28.025c-.02.1-.04.2-.07.3H38.599c-.03-.1-.05-.2-.07-.3h13.477zM51.804 28.767c-.03.1-.07.2-.11.3H38.838c-.04-.1-.07-.2-.11-.3h13.076zM51.515 29.496l-.15.3H39.178l-.15-.3h12.487zM51.115 30.237c-.06.1-.13.2-.2.3H39.629c-.07-.1-.14-.2-.2-.3h11.686zM50.585 30.977c-.09.1-.17.2-.26.3H40.218c-.09-.1-.18-.2-.26-.3h10.626zM49.874 31.708c-.11.1-.23.2-.35.3h-8.495c-.12-.1-.24-.19-.35-.3h9.195zM48.883 32.448c-.12.07-.24.15-.37.21-.05.03-.11.06-.16.08H42.19l-.16-.08c-.13-.07-.25-.14-.37-.21h7.223zM45.992 33.439c.43-.04.84-.13 1.24-.25h-3.931c.4.12.82.2 1.24.25h1.451z" fill="#F0F0F3"/>
        <path fill-rule="evenodd" clip-rule="evenodd" d="M46.332 19.722v13.707h-2.121V19.722c.35-.02.7-.04 1.06-.04.36 0 .71.02 1.061.04z" fill="#F0F0F3"/>
        <path fill-rule="evenodd" clip-rule="evenodd" d="M41.26 20.972V32.238l.39.26c.12.07.24.15.37.21V20.494c-.1.05-.19.1-.28.16-.16.09-.31.19-.45.3l-.03.02zM49.254 20.952c-.15-.11-.3-.2-.45-.3-.09-.06-.19-.11-.28-.16V32.708c.13-.07.25-.14.37-.21.13-.08.26-.17.39-.26V20.934l-.03.02z" fill="#ABABB5"/>
        <path fill-rule="evenodd" clip-rule="evenodd" d="M39.249 28.176c.76-.75 1.76-1.17 2.841-1.17.45 0 .87.07 1.291.21-.4.23-.77.52-1.1.85a5.46 5.46 0 0 0-1.501 2.801 6.075 6.075 0 0 1-1.531-2.691zm11.926-3.172c-.76.75-1.76 1.17-2.841 1.17-.45 0-.87-.07-1.291-.21.4-.23.77-.52 1.1-.85a5.46 5.46 0 0 0 1.501-2.801 5.98 5.98 0 0 1 1.531 2.691zm-4.052-.92c-.31.31-.67.57-1.06.77.12-.45.17-.91.17-1.39a5.52 5.52 0 0 0-.921-3.042c1.09.02 2.101.32 2.982.83a3.94 3.94 0 0 1-1.171 2.832zm-3.502-3.462c.75.76 1.17 1.76 1.17 2.841 0 .45-.07.87-.21 1.291-.23-.4-.52-.77-.85-1.1a5.46 5.46 0 0 0-2.801-1.501 6.09 6.09 0 0 1 2.691-1.531zm-3.742 2.871a4.076 4.076 0 0 1 3.602 2.242c-.45-.12-.91-.17-1.39-.17a5.52 5.52 0 0 0-3.042.92c.02-1.1.32-2.111.83-2.992zm3.412 5.593c.31-.31.67-.57 1.06-.77-.12.45-.17.91-.17 1.39 0 1.091.33 2.152.92 3.042a6.137 6.137 0 0 1-2.98-.83c0-1.06.42-2.071 1.17-2.832zm3.502 3.462a4.012 4.012 0 0 1-1.17-2.841c0-.45.07-.87.21-1.291.23.4.52.77.85 1.1.78.781 1.74 1.291 2.801 1.501-.74.72-1.66 1.261-2.691 1.531zm3.752-2.861a4.077 4.077 0 0 1-3.602-2.242c.45.12.91.17 1.39.17a5.52 5.52 0 0 0 3.042-.92 6.069 6.069 0 0 1-.83 2.992zM45.212 18.96c-4.212 0-7.624 3.422-7.624 7.624s3.422 7.624 7.624 7.624c4.212 0 7.624-3.422 7.624-7.624s-3.422-7.624-7.624-7.624z" fill="#3E3F46"/>
        <path fill-rule="evenodd" clip-rule="evenodd" d="M45.212 24.524c1.141 0 2.062.92 2.062 2.061s-.92 2.062-2.062 2.062c-1.14 0-2.06-.92-2.06-2.061s.92-2.062 2.06-2.062z" fill="#F0F0F3"/>
        <path fill-rule="evenodd" clip-rule="evenodd" d="M46.072 24.714c.13.26.19.55.19.86 0 1.14-.93 2.061-2.06 2.061-.31 0-.601-.07-.861-.19a2.065 2.065 0 0 0 3.942-.86c0-.83-.5-1.551-1.21-1.871z" fill="#ABABB5"/>
        <path fill-rule="evenodd" clip-rule="evenodd" d="M22.2 28.276a4.012 4.012 0 0 1 2.841-1.17c.45 0 .87.07 1.291.21-.4.23-.77.52-1.1.85-.78.78-1.291 1.751-1.501 2.802a6.09 6.09 0 0 1-1.531-2.692zm11.926-3.171c-.76.75-1.76 1.17-2.841 1.17-.45 0-.87-.07-1.29-.21.4-.23.77-.52 1.1-.85a5.46 5.46 0 0 0 1.5-2.802c.72.74 1.261 1.661 1.531 2.692zm-4.052-.92c-.31.31-.67.57-1.06.77.12-.45.17-.91.17-1.391a5.52 5.52 0 0 0-.92-3.042c1.09.02 2.1.32 2.98.83a4 4 0 0 1-1.17 2.832zm-3.502-3.463c.75.76 1.17 1.761 1.17 2.842 0 .45-.07.87-.21 1.29-.23-.4-.52-.77-.85-1.1a5.46 5.46 0 0 0-2.801-1.5c.74-.731 1.66-1.261 2.691-1.532zm-3.742 2.872a4.077 4.077 0 0 1 3.602 2.241c-.45-.12-.91-.17-1.39-.17-1.101 0-2.152.33-3.042.92.01-1.1.32-2.11.83-2.991zm3.412 5.593c.31-.31.67-.57 1.06-.77-.12.45-.17.91-.17 1.39 0 1.09.33 2.151.921 3.042a6.137 6.137 0 0 1-2.982-.83c0-1.061.41-2.082 1.171-2.832zm3.502 3.462a4.012 4.012 0 0 1-1.17-2.842c0-.45.07-.87.21-1.29.23.4.52.77.85 1.1a5.42 5.42 0 0 0 2.801 1.5 6.23 6.23 0 0 1-2.691 1.532zm3.752-2.862a4.076 4.076 0 0 1-3.602-2.241c.45.12.91.17 1.39.17a5.52 5.52 0 0 0 3.042-.92 6.175 6.175 0 0 1-.83 2.991zm-5.333-10.726c-4.212 0-7.624 3.422-7.624 7.625 0 4.202 3.422 7.624 7.624 7.624 4.212 0 7.624-3.422 7.624-7.624 0-4.203-3.432-7.625-7.624-7.625z" fill="#3E3F46"/>
        <path fill-rule="evenodd" clip-rule="evenodd" d="M28.163 24.615c1.14 0 2.06.92 2.06 2.061 0 1.14-.92 2.061-2.06 2.061-1.14 0-2.061-.92-2.061-2.06-.01-1.131.92-2.062 2.06-2.062z" fill="#F0F0F3"/>
        <path fill-rule="evenodd" clip-rule="evenodd" d="M29.023 24.815c.13.26.19.55.19.86 0 1.142-.93 2.062-2.06 2.062-.31 0-.6-.07-.861-.19a2.065 2.065 0 0 0 3.942-.86c-.01-.841-.5-1.551-1.21-1.872z" fill="#ABABB5"/>
        <path d="M18.678 42.994v-2.571h31.166v1.07h-1.44l.28.7h-2.071v-.13a.45.45 0 1 0-.9-.01v.941H25.691v-.94c0-.19-.15-.34-.34-.34-.19 0-.34.15-.34.34v.94h-3.003v-1.49H20.9v1.49h-2.221z" fill="#3F3E45"/>
        <path d="M46.612 42.194v1.22h2.832c.38 0 .69-.31.69-.69v-.62l-3.522.09z" fill="#FBA615"/>
        <path d="M45.712 42.994h-20.02v1.21h20.02v-1.21zM25.021 42.994H22.02v1.12h3.002v-1.12z" fill="#F2994A"/>
        <path d="M8.753 17.8v28.025h3.902v-3.182h-1.52c-.621 0-1.131-.49-1.131-1.09V17.8H8.753z" fill="#3F3E45"/>
        <path fill-rule="evenodd" clip-rule="evenodd" d="M7.432 33.529H5.66c-.45 0-.8-.36-.8-.8v-9.055c0-.45.36-.801.8-.801h1.77v10.656z" fill="#6E6E78"/>
        <path fill-rule="evenodd" clip-rule="evenodd" d="M6.051 28.596v-6.183h-.85c-.45 0-.79.36-.79.81v7.054c.9 0 1.64-.75 1.64-1.68z" fill="#ABABB5"/>
        <path fill-rule="evenodd" clip-rule="evenodd" d="M8.753 12.447c0-.27-.13-.5-.33-.64a.714.714 0 0 0-.43-.14H4.76a.77.77 0 0 0-.76.78c0 .43.33.78.75.78h2.482v32.638c0 .42.33.76.74.76h.03c.42 0 .75-.34.74-.76l.01-33.418z" fill="#ABABB5"/>
        <path d="M10.703 45.235a.99.99 0 1 0 0-1.981.99.99 0 0 0 0 1.981z" fill="#A5A5AD"/>
        <path d="m10.783 43.524.05.58.56.05v.16l-.56.05-.05.591h-.17l-.05-.59-.56-.05v-.16l.56-.05.05-.58h.17z" fill="#3B3C43"/>
    </g>
    <defs>
        <clipPath id="im81feglsa">
            <path fill="#fff" transform="translate(4)" d="M0 0h56v56H0z"/>
        </clipPath>
        <filter id="p2k4m9g3db" x="0" y="0" width="64" height="64" filterUnits="userSpaceOnUse" color-interpolation-filters="sRGB">
            <feFlood flood-opacity="0" result="BackgroundImageFix"/>
            <feColorMatrix in="SourceAlpha" values="0 0 0 0 0 0 0 0 0 0 0 0 0 0 0 0 0 0 127 0" result="hardAlpha"/>
            <feOffset dy="4"/>
            <feGaussianBlur stdDeviation="2"/>
            <feComposite in2="hardAlpha" operator="out"/>
            <feColorMatrix values="0 0 0 0 0 0 0 0 0 0 0 0 0 0 0 0 0 0 0.25 0"/>
            <feBlend in2="BackgroundImageFix" result="effect1_dropShadow_57_4927"/>
            <feBlend in="SourceGraphic" in2="effect1_dropShadow_57_4927" result="shape"/>
        </filter>
    </defs>
</svg>
