<svg width="32" height="32" viewBox="0 0 32 32" fill="none" xmlns="http://www.w3.org/2000/svg">
<g clip-path="url(#clip0_436_17960)">
<path d="M31.5212 19.8705C29.3841 28.4421 20.7016 33.6585 12.1281 31.5211C3.55818 29.3841 -1.65886 20.702 0.47923 12.1312C2.61545 3.55871 11.298 -1.65814 19.8688 0.478776C28.4417 2.6157 33.6584 11.2988 31.521 19.8707L31.5212 19.8705H31.5212Z" fill="#EEF3FB"/>
<g clip-path="url(#clip1_436_17960)">
<path d="M15.6376 23.4731L9.33301 27.9996L13.3354 9.5817L15.6376 23.4731ZM15.7651 23.4306L19.6046 23.4802L13.4841 9.65254L15.7651 23.4306ZM19.9658 23.126L22.9056 12.2311L21.7935 10.871L19.9658 23.126ZM18.5491 6.04688L13.7108 9.30543L20.7805 7.01736L18.5491 6.04688ZM17.9399 6.04688L14.9363 6.14605L14.4971 7.39989L17.9399 6.04688Z" fill="#384182"/>
<path d="M21.5805 10.454L13.8379 9.3914L20.8155 7.19541L21.5805 10.454ZM19.7458 6.35952L20.1708 5.20486L17.9394 4.23438L19.7458 6.35952ZM20.3904 5.09152L20.8934 6.90498L23.8686 6.11867L20.3904 5.09152Z" fill="#F79534"/>
<path d="M19.7748 23.4097L13.5693 9.52538L21.6591 10.6588L19.7748 23.4097ZM18.3155 6.04723L14.4902 7.54191L13.5693 9.24203L18.3155 6.04723ZM15.9424 4.91381L14.9861 5.9693L18.1597 5.89138L15.9424 4.91381ZM17.6142 4.09209L16.0983 4.79339L19.5552 6.31641L17.6142 4.09209ZM19.3427 4H17.7134L20.2352 4.97757L19.3427 4ZM20.2848 5.29634L19.8952 6.45809L20.6744 6.83353L20.2848 5.29634Z" fill="#F0513A"/>
</g>
</g>
<defs>
<clipPath id="clip0_436_17960">
<rect width="32" height="32" fill="white"/>
</clipPath>
<clipPath id="clip1_436_17960">
<rect width="14.5431" height="24" fill="white" transform="translate(9.33301 4)"/>
</clipPath>
</defs>
</svg>
