<svg width="36" height="36" viewBox="0 0 36 36" fill="none" xmlns="http://www.w3.org/2000/svg">
    <g opacity="1">
        <g clip-path="url(#728kg56xba)">
            <path d="M33.521 21.87c-2.137 8.572-10.82 13.788-19.393 11.651C5.558 31.384.341 22.702 2.48 14.131 4.615 5.56 13.298.341 21.87 2.48c8.573 2.137 13.79 10.82 11.652 19.392z" fill="#EEF3FB"/>
            <g clip-path="url(#ysfibuy8wb)">
                <path d="M17.638 25.473 11.333 30l4.002-18.418 2.303 13.891zm.127-.042 3.84.05-6.12-13.829 2.28 13.779zm4.2-.305 2.94-10.895-1.111-1.36-1.828 12.255zM20.55 8.046l-4.838 3.26 7.07-2.289-2.232-.97zm-.61 0-3.003.1-.439 1.254 3.443-1.353z" fill="#384182"/>
                <path d="m23.58 12.453-7.742-1.063 6.978-2.196.765 3.259zm-1.834-4.094.425-1.155-2.232-.97 1.807 2.125zm.644-1.268.503 1.813 2.976-.786L22.39 7.09z" fill="#F79534"/>
                <path d="m21.775 25.41-6.206-13.885 8.09 1.134-1.884 12.75zm-1.46-17.363L16.49 9.542l-.92 1.7 4.745-3.195zm-2.373-1.133-.956 1.055 3.174-.078-2.218-.977zm1.672-.822-1.516.701 3.457 1.523-1.94-2.224zM21.343 6h-1.63l2.522.978L21.343 6zm.942 1.296-.39 1.162.78.376-.39-1.538z" fill="#F0513A"/>
            </g>
        </g>
        <path d="M18 32c-7.732 0-14-6.268-14-14H0c0 9.941 8.059 18 18 18v-4zm14-14c0 7.732-6.268 14-14 14v4c9.941 0 18-8.059 18-18h-4zM18 4c7.732 0 14 6.268 14 14h4c0-9.941-8.059-18-18-18v4zm0-4C8.059 0 0 8.059 0 18h4c0-7.732 6.268-14 14-14V0z" fill="#302C3F"/>
    </g>
    <defs>
        <clipPath id="728kg56xba">
            <path d="M2 18C2 9.163 9.163 2 18 2s16 7.163 16 16-7.163 16-16 16S2 26.837 2 18z" fill="#fff"/>
        </clipPath>
        <clipPath id="ysfibuy8wb">
            <path fill="#fff" transform="translate(11.333 6)" d="M0 0h14.543v24H0z"/>
        </clipPath>
    </defs>
</svg>
