<svg width="343" height="394" viewBox="0 0 343 394" fill="none" xmlns="http://www.w3.org/2000/svg">
    <path fill="#302C3F" d="M0 0h343v394H0z"/>
    <path d="M152.37 216h-3.36v-17.016h3.36V216zm22.867 0h-3.264v-11.928L167.077 216h-2.76l-4.896-11.832V216h-3.168v-17.016h4.368l5.112 12.288 4.992-12.288h4.512V216zm19.299 0h-2.688l-.216-1.944c-.432.656-1.08 1.208-1.944 1.656-.848.432-1.872.648-3.072.648-2.368 0-4.376-.808-6.024-2.424-1.648-1.616-2.472-3.76-2.472-6.432 0-2.656.848-4.8 2.544-6.432 1.712-1.632 3.768-2.448 6.168-2.448 2.08 0 3.776.504 5.088 1.512 1.328 1.008 2.224 2.248 2.688 3.72l-3.168 1.128c-.256-.88-.776-1.64-1.56-2.28-.768-.656-1.784-.984-3.048-.984-1.44 0-2.696.496-3.768 1.488-1.056.992-1.584 2.424-1.584 4.296 0 1.84.512 3.272 1.536 4.296 1.04 1.024 2.32 1.536 3.84 1.536 1.408 0 2.488-.352 3.24-1.056.752-.72 1.192-1.472 1.32-2.256h-5.376v-2.88h8.496V216z" fill="#fff"/>
</svg>
